<svg xmlns="http://www.w3.org/2000/svg" viewBox="0 0 529.6 506.45"><defs><style>.cls-1,.cls-2,.cls-3,.cls-4,.cls-5{fill:#331089;stroke-linecap:round;stroke-miterlimit:10;stroke-width:4px;}.cls-1{stroke:#ff6efc;}.cls-2{stroke:#ffd671;}.cls-3{stroke:#ff7d7d;}.cls-4{stroke:#c5dfff;}.cls-5{stroke:#71ffbb;}.cls-6{fill:#ff6efc;}.cls-7{fill:#71ffbb;}.cls-8{fill:#fff;}.cls-9{fill:#ffd671;}.cls-10{fill:#c471ff;}.cls-11{fill:#71d0ff;}</style></defs><title>Asset 1</title><g id="Layer_2" data-name="Layer 2"><g id="Layer_2-2" data-name="Layer 2"><line class="cls-1" x1="50" y1="23.32" x2="50" y2="38.58"/><line class="cls-1" x1="57.63" y1="30.95" x2="42.37" y2="30.95"/><line class="cls-2" x1="116.01" y1="127.81" x2="116.01" y2="143.07"/><line class="cls-2" x1="123.64" y1="135.44" x2="108.38" y2="135.44"/><line class="cls-3" x1="29.75" y1="115.26" x2="29.75" y2="130.51"/><line class="cls-3" x1="37.38" y1="122.88" x2="22.12" y2="122.88"/><line class="cls-4" x1="94.55" y1="92.17" x2="94.55" y2="107.43"/><line class="cls-4" x1="102.17" y1="99.8" x2="86.92" y2="99.8"/><line class="cls-5" x1="33.8" y1="65.04" x2="33.8" y2="80.29"/><line class="cls-5" x1="41.43" y1="72.66" x2="26.17" y2="72.66"/><polygon class="cls-6" points="150.7 127.41 145.66 124.97 146.28 130.42 150.7 127.41"/><polygon class="cls-7" points="84.35 160.94 79.1 162.87 83.44 166.21 84.35 160.94"/><circle class="cls-7" cx="64.14" cy="80.65" r="3.44"/><circle class="cls-8" cx="143.92" cy="42.17" r="3.44"/><circle class="cls-9" cx="140.27" cy="79.43" r="2.23"/><circle class="cls-10" cx="104.03" cy="16.05" r="2.02"/><circle class="cls-11" cx="46.72" cy="160.83" r="3.85"/><line class="cls-1" x1="71.85" y1="130.29" x2="56.59" y2="130.29"/><line class="cls-1" x1="64.22" y1="137.92" x2="64.22" y2="122.67"/><line class="cls-2" x1="172.69" y1="221.82" x2="157.44" y2="221.82"/><line class="cls-2" x1="165.06" y1="229.45" x2="165.06" y2="214.19"/><line class="cls-3" x1="201.44" y1="135.56" x2="186.19" y2="135.56"/><line class="cls-3" x1="193.82" y1="143.19" x2="193.82" y2="127.93"/><line class="cls-4" x1="224.53" y1="200.36" x2="209.27" y2="200.36"/><line class="cls-4" x1="216.9" y1="207.98" x2="216.9" y2="192.73"/><line class="cls-1" x1="243.97" y1="125.03" x2="228.71" y2="125.03"/><line class="cls-1" x1="236.34" y1="132.66" x2="236.34" y2="117.4"/><polygon class="cls-6" points="192.13 219.66 194.56 214.62 189.12 215.23 192.13 219.66"/><polygon class="cls-7" points="155.76 190.16 153.83 184.91 150.49 189.25 155.76 190.16"/><circle class="cls-7" cx="236.05" cy="169.94" r="3.44"/><circle class="cls-8" cx="102.2" cy="51.08" r="3.44"/><circle class="cls-9" cx="33.76" cy="194.85" r="2.23"/><circle class="cls-11" cx="150.2" cy="152.53" r="3.85"/><line class="cls-1" x1="101.82" y1="224.25" x2="86.56" y2="224.25"/><line class="cls-1" x1="94.19" y1="231.88" x2="94.19" y2="216.62"/><line class="cls-2" x1="181.6" y1="69.14" x2="166.35" y2="69.14"/><line class="cls-2" x1="173.97" y1="76.77" x2="173.97" y2="61.51"/><line class="cls-3" x1="202.25" y1="23.38" x2="187" y2="23.38"/><line class="cls-3" x1="194.63" y1="31" x2="194.63" y2="15.75"/><line class="cls-4" x1="235.06" y1="39.98" x2="219.8" y2="39.98"/><line class="cls-4" x1="227.43" y1="47.61" x2="227.43" y2="32.35"/><line class="cls-1" x1="42.16" y1="178.22" x2="26.9" y2="178.22"/><line class="cls-1" x1="34.53" y1="185.85" x2="34.53" y2="170.59"/><line class="cls-3" x1="139.08" y1="208.05" x2="123.82" y2="208.05"/><line class="cls-3" x1="131.45" y1="215.68" x2="131.45" y2="200.42"/><line class="cls-5" x1="107.89" y1="180.92" x2="92.64" y2="180.92"/><line class="cls-5" x1="100.26" y1="188.54" x2="100.26" y2="173.29"/><polygon class="cls-6" points="199.82 96.13 202.26 91.1 196.81 91.71 199.82 96.13"/><polygon class="cls-7" points="166.29 29.79 164.36 24.53 161.02 28.88 166.29 29.79"/><circle class="cls-7" cx="244.36" cy="15.44" r="3.44"/><circle class="cls-7" cx="20.4" cy="219.56" r="3.44"/><circle class="cls-8" cx="67.78" cy="203.76" r="3.44"/><circle class="cls-9" cx="247.8" cy="85.71" r="2.23"/><circle class="cls-10" cx="123.87" cy="231.5" r="2.02"/><circle class="cls-11" cx="24.45" cy="16.25" r="3.85"/><line class="cls-4" x1="46.74" y1="224.66" x2="31.48" y2="224.66"/><line class="cls-4" x1="39.11" y1="232.28" x2="39.11" y2="217.03"/><line class="cls-3" x1="243.56" y1="224.66" x2="228.31" y2="224.66"/><line class="cls-3" x1="235.94" y1="232.28" x2="235.94" y2="217.03"/><line class="cls-1" x1="173.91" y1="103.56" x2="158.65" y2="103.56"/><line class="cls-1" x1="166.28" y1="111.19" x2="166.28" y2="95.94"/><circle class="cls-11" cx="192.92" cy="178.65" r="3.85"/><line class="cls-1" x1="145" y1="251.32" x2="145" y2="266.58"/><line class="cls-1" x1="152.63" y1="258.95" x2="137.37" y2="258.95"/><line class="cls-2" x1="211.01" y1="355.81" x2="211.01" y2="371.07"/><line class="cls-2" x1="218.64" y1="363.44" x2="203.38" y2="363.44"/><line class="cls-3" x1="124.75" y1="343.26" x2="124.75" y2="358.51"/><line class="cls-3" x1="132.38" y1="350.88" x2="117.12" y2="350.88"/><line class="cls-4" x1="189.55" y1="320.17" x2="189.55" y2="335.43"/><line class="cls-4" x1="197.17" y1="327.8" x2="181.92" y2="327.8"/><line class="cls-5" x1="128.8" y1="293.04" x2="128.8" y2="308.29"/><line class="cls-5" x1="136.43" y1="300.66" x2="121.17" y2="300.66"/><polygon class="cls-6" points="245.7 355.41 240.66 352.97 241.28 358.42 245.7 355.41"/><polygon class="cls-7" points="179.35 388.94 174.1 390.87 178.44 394.21 179.35 388.94"/><circle class="cls-7" cx="159.14" cy="308.65" r="3.44"/><circle class="cls-8" cx="238.92" cy="270.17" r="3.44"/><circle class="cls-9" cx="226.27" cy="309.43" r="2.23"/><circle class="cls-10" cx="199.03" cy="244.05" r="2.02"/><circle class="cls-11" cx="141.72" cy="388.83" r="3.85"/><line class="cls-1" x1="166.85" y1="358.29" x2="151.59" y2="358.29"/><line class="cls-1" x1="159.22" y1="365.92" x2="159.22" y2="350.67"/><line class="cls-2" x1="267.69" y1="449.82" x2="252.44" y2="449.82"/><line class="cls-2" x1="260.06" y1="457.45" x2="260.06" y2="442.19"/><line class="cls-3" x1="296.44" y1="363.56" x2="281.19" y2="363.56"/><line class="cls-3" x1="288.82" y1="371.19" x2="288.82" y2="355.93"/><line class="cls-4" x1="319.53" y1="428.36" x2="304.27" y2="428.36"/><line class="cls-4" x1="311.9" y1="435.98" x2="311.9" y2="420.73"/><line class="cls-1" x1="338.97" y1="353.03" x2="323.71" y2="353.03"/><line class="cls-1" x1="331.34" y1="360.66" x2="331.34" y2="345.4"/><polygon class="cls-6" points="287.13 447.66 289.56 442.62 284.12 443.23 287.13 447.66"/><polygon class="cls-7" points="250.76 418.16 248.83 412.91 245.49 417.25 250.76 418.16"/><circle class="cls-7" cx="331.05" cy="397.94" r="3.44"/><circle class="cls-8" cx="197.2" cy="279.08" r="3.44"/><circle class="cls-9" cx="128.76" cy="422.85" r="2.23"/><circle class="cls-11" cx="245.2" cy="380.53" r="3.85"/><line class="cls-1" x1="196.82" y1="452.25" x2="181.56" y2="452.25"/><line class="cls-1" x1="189.19" y1="459.88" x2="189.19" y2="444.62"/><line class="cls-2" x1="276.6" y1="297.14" x2="261.35" y2="297.14"/><line class="cls-2" x1="268.97" y1="304.77" x2="268.97" y2="289.51"/><line class="cls-3" x1="297.25" y1="251.38" x2="282" y2="251.38"/><line class="cls-3" x1="289.63" y1="259" x2="289.63" y2="243.75"/><line class="cls-4" x1="326.06" y1="286.98" x2="310.8" y2="286.98"/><line class="cls-4" x1="318.43" y1="294.61" x2="318.43" y2="279.35"/><line class="cls-1" x1="137.16" y1="406.22" x2="121.9" y2="406.22"/><line class="cls-1" x1="129.53" y1="413.85" x2="129.53" y2="398.59"/><line class="cls-3" x1="234.08" y1="436.05" x2="218.82" y2="436.05"/><line class="cls-3" x1="226.45" y1="443.68" x2="226.45" y2="428.42"/><line class="cls-5" x1="202.89" y1="408.92" x2="187.64" y2="408.92"/><line class="cls-5" x1="195.26" y1="416.54" x2="195.26" y2="401.29"/><polygon class="cls-6" points="294.82 324.13 297.26 319.1 291.81 319.71 294.82 324.13"/><polygon class="cls-7" points="261.29 257.79 259.36 252.53 256.02 256.88 261.29 257.79"/><circle class="cls-7" cx="339.36" cy="243.44" r="3.44"/><circle class="cls-7" cx="115.4" cy="447.56" r="3.44"/><circle class="cls-8" cx="162.78" cy="431.76" r="3.44"/><circle class="cls-9" cx="342.8" cy="313.71" r="2.23"/><circle class="cls-10" cx="218.87" cy="459.5" r="2.02"/><circle class="cls-11" cx="119.45" cy="244.25" r="3.85"/><line class="cls-4" x1="141.74" y1="452.66" x2="126.48" y2="452.66"/><line class="cls-4" x1="134.11" y1="460.28" x2="134.11" y2="445.03"/><line class="cls-3" x1="348.56" y1="473.66" x2="333.31" y2="473.66"/><line class="cls-3" x1="340.94" y1="481.28" x2="340.94" y2="466.03"/><line class="cls-1" x1="268.91" y1="331.56" x2="253.65" y2="331.56"/><line class="cls-1" x1="261.28" y1="339.19" x2="261.28" y2="323.94"/><circle class="cls-11" cx="287.92" cy="406.65" r="3.85"/><line class="cls-1" x1="297" y1="11.32" x2="297" y2="26.58"/><line class="cls-1" x1="304.63" y1="18.95" x2="289.37" y2="18.95"/><line class="cls-2" x1="363.01" y1="115.81" x2="363.01" y2="131.07"/><line class="cls-2" x1="370.64" y1="123.44" x2="355.38" y2="123.44"/><line class="cls-3" x1="276.75" y1="103.26" x2="276.75" y2="118.51"/><line class="cls-3" x1="284.38" y1="110.88" x2="269.12" y2="110.88"/><line class="cls-4" x1="341.55" y1="80.17" x2="341.55" y2="95.43"/><line class="cls-4" x1="349.17" y1="87.8" x2="333.92" y2="87.8"/><line class="cls-5" x1="280.8" y1="53.04" x2="280.8" y2="68.29"/><line class="cls-5" x1="288.43" y1="60.66" x2="273.17" y2="60.66"/><polygon class="cls-6" points="397.7 115.41 392.66 112.97 393.28 118.42 397.7 115.41"/><polygon class="cls-7" points="331.35 148.94 326.1 150.87 330.44 154.21 331.35 148.94"/><circle class="cls-7" cx="311.14" cy="68.65" r="3.44"/><circle class="cls-8" cx="390.92" cy="30.17" r="3.44"/><circle class="cls-9" cx="387.27" cy="67.43" r="2.23"/><circle class="cls-10" cx="351.03" cy="4.05" r="2.02"/><circle class="cls-11" cx="293.72" cy="148.83" r="3.85"/><line class="cls-1" x1="318.85" y1="118.29" x2="303.59" y2="118.29"/><line class="cls-1" x1="311.22" y1="125.92" x2="311.22" y2="110.67"/><line class="cls-2" x1="419.69" y1="209.82" x2="404.44" y2="209.82"/><line class="cls-2" x1="412.06" y1="217.45" x2="412.06" y2="202.19"/><line class="cls-3" x1="448.44" y1="123.56" x2="433.19" y2="123.56"/><line class="cls-3" x1="440.82" y1="131.19" x2="440.82" y2="115.93"/><line class="cls-4" x1="471.53" y1="188.36" x2="456.27" y2="188.36"/><line class="cls-4" x1="463.9" y1="195.98" x2="463.9" y2="180.73"/><line class="cls-1" x1="490.97" y1="113.03" x2="475.71" y2="113.03"/><line class="cls-1" x1="483.34" y1="120.66" x2="483.34" y2="105.4"/><polygon class="cls-6" points="439.13 207.66 441.56 202.62 436.12 203.23 439.13 207.66"/><polygon class="cls-7" points="402.76 178.16 400.83 172.91 397.49 177.25 402.76 178.16"/><circle class="cls-7" cx="483.05" cy="157.94" r="3.44"/><circle class="cls-8" cx="349.2" cy="39.08" r="3.44"/><circle class="cls-9" cx="280.76" cy="182.85" r="2.23"/><circle class="cls-11" cx="397.2" cy="140.53" r="3.85"/><line class="cls-1" x1="348.82" y1="212.25" x2="333.56" y2="212.25"/><line class="cls-1" x1="341.19" y1="219.88" x2="341.19" y2="204.62"/><line class="cls-2" x1="428.6" y1="57.14" x2="413.35" y2="57.14"/><line class="cls-2" x1="420.97" y1="64.77" x2="420.97" y2="49.51"/><line class="cls-3" x1="449.25" y1="11.38" x2="434" y2="11.38"/><line class="cls-3" x1="441.63" y1="19" x2="441.63" y2="3.75"/><line class="cls-4" x1="482.06" y1="27.98" x2="466.8" y2="27.98"/><line class="cls-4" x1="474.43" y1="35.61" x2="474.43" y2="20.35"/><line class="cls-1" x1="275.16" y1="154.22" x2="259.9" y2="154.22"/><line class="cls-1" x1="267.53" y1="161.85" x2="267.53" y2="146.59"/><line class="cls-3" x1="386.08" y1="196.05" x2="370.82" y2="196.05"/><line class="cls-3" x1="378.45" y1="203.68" x2="378.45" y2="188.42"/><line class="cls-5" x1="354.89" y1="168.92" x2="339.64" y2="168.92"/><line class="cls-5" x1="347.26" y1="176.54" x2="347.26" y2="161.29"/><polygon class="cls-6" points="446.82 84.13 449.26 79.1 443.81 79.71 446.82 84.13"/><polygon class="cls-7" points="413.29 17.79 411.36 12.53 408.02 16.88 413.29 17.79"/><circle class="cls-7" cx="491.36" cy="3.44" r="3.44"/><circle class="cls-7" cx="267.4" cy="207.56" r="3.44"/><circle class="cls-8" cx="314.78" cy="191.76" r="3.44"/><circle class="cls-9" cx="494.8" cy="73.71" r="2.23"/><circle class="cls-10" cx="370.87" cy="219.5" r="2.02"/><circle class="cls-11" cx="271.45" cy="4.25" r="3.85"/><line class="cls-4" x1="293.74" y1="212.66" x2="278.48" y2="212.66"/><line class="cls-4" x1="286.11" y1="220.28" x2="286.11" y2="205.03"/><line class="cls-3" x1="490.56" y1="212.66" x2="475.31" y2="212.66"/><line class="cls-3" x1="482.94" y1="220.28" x2="482.94" y2="205.03"/><line class="cls-1" x1="420.91" y1="91.56" x2="405.65" y2="91.56"/><line class="cls-1" x1="413.28" y1="99.19" x2="413.28" y2="83.94"/><circle class="cls-11" cx="439.92" cy="166.65" r="3.85"/><polygon class="cls-6" points="79.7 390.41 74.66 387.97 75.28 393.42 79.7 390.41"/><circle class="cls-8" cx="68.92" cy="277.17" r="3.44"/><circle class="cls-9" cx="65.27" cy="314.43" r="2.23"/><line class="cls-2" x1="111.69" y1="496.82" x2="96.44" y2="496.82"/><line class="cls-2" x1="104.06" y1="504.45" x2="104.06" y2="489.19"/><line class="cls-3" x1="42.44" y1="313.56" x2="27.19" y2="313.56"/><line class="cls-3" x1="34.82" y1="321.19" x2="34.82" y2="305.93"/><line class="cls-4" x1="39.53" y1="430.36" x2="24.27" y2="430.36"/><line class="cls-4" x1="31.9" y1="437.98" x2="31.9" y2="422.73"/><line class="cls-1" x1="58.97" y1="355.03" x2="43.71" y2="355.03"/><line class="cls-1" x1="51.34" y1="362.66" x2="51.34" y2="347.4"/><polygon class="cls-6" points="121.13 482.66 123.56 477.62 118.12 478.23 121.13 482.66"/><polygon class="cls-7" points="94.76 465.16 92.83 459.91 89.49 464.25 94.76 465.16"/><circle class="cls-7" cx="51.05" cy="399.94" r="3.44"/><circle class="cls-11" cx="89.2" cy="425.53" r="3.85"/><line class="cls-2" x1="106.6" y1="304.14" x2="91.35" y2="304.14"/><line class="cls-2" x1="98.97" y1="311.77" x2="98.97" y2="296.51"/><line class="cls-3" x1="17.25" y1="253.38" x2="2" y2="253.38"/><line class="cls-3" x1="9.63" y1="261" x2="9.63" y2="245.75"/><line class="cls-4" x1="50.06" y1="269.98" x2="34.8" y2="269.98"/><line class="cls-4" x1="42.43" y1="277.61" x2="42.43" y2="262.35"/><line class="cls-3" x1="78.08" y1="483.05" x2="62.82" y2="483.05"/><line class="cls-3" x1="70.45" y1="490.68" x2="70.45" y2="475.42"/><polygon class="cls-6" points="14.82 326.13 17.26 321.1 11.81 321.71 14.82 326.13"/><polygon class="cls-7" points="91.29 264.79 89.36 259.53 86.02 263.88 91.29 264.79"/><circle class="cls-7" cx="59.36" cy="245.44" r="3.44"/><circle class="cls-9" cx="62.8" cy="315.71" r="2.23"/><circle class="cls-10" cx="34.87" cy="475.5" r="2.02"/><line class="cls-3" x1="58.56" y1="454.66" x2="43.31" y2="454.66"/><line class="cls-3" x1="50.94" y1="462.28" x2="50.94" y2="447.03"/><line class="cls-1" x1="98.91" y1="338.56" x2="83.65" y2="338.56"/><line class="cls-1" x1="91.28" y1="346.19" x2="91.28" y2="330.94"/><circle class="cls-11" cx="16.92" cy="382.65" r="3.85"/><line class="cls-1" x1="396" y1="251.32" x2="396" y2="266.58"/><line class="cls-1" x1="403.63" y1="258.95" x2="388.37" y2="258.95"/><line class="cls-2" x1="462.01" y1="355.81" x2="462.01" y2="371.07"/><line class="cls-2" x1="469.64" y1="363.44" x2="454.38" y2="363.44"/><line class="cls-3" x1="375.75" y1="343.26" x2="375.75" y2="358.51"/><line class="cls-3" x1="383.38" y1="350.88" x2="368.12" y2="350.88"/><line class="cls-4" x1="440.55" y1="320.17" x2="440.55" y2="335.43"/><line class="cls-4" x1="448.17" y1="327.8" x2="432.92" y2="327.8"/><line class="cls-5" x1="379.8" y1="293.04" x2="379.8" y2="308.29"/><line class="cls-5" x1="387.43" y1="300.66" x2="372.17" y2="300.66"/><polygon class="cls-6" points="496.7 355.41 491.66 352.97 492.28 358.42 496.7 355.41"/><polygon class="cls-7" points="430.35 388.94 425.1 390.87 429.44 394.21 430.35 388.94"/><circle class="cls-7" cx="410.14" cy="308.65" r="3.44"/><circle class="cls-8" cx="489.92" cy="270.17" r="3.44"/><circle class="cls-9" cx="486.27" cy="307.43" r="2.23"/><circle class="cls-10" cx="450.03" cy="244.05" r="2.02"/><circle class="cls-11" cx="392.72" cy="388.83" r="3.85"/><line class="cls-1" x1="417.85" y1="358.29" x2="402.59" y2="358.29"/><line class="cls-1" x1="410.22" y1="365.92" x2="410.22" y2="350.67"/><line class="cls-2" x1="166.69" y1="477.82" x2="151.44" y2="477.82"/><line class="cls-2" x1="159.06" y1="485.45" x2="159.06" y2="470.19"/><line class="cls-3" x1="80.44" y1="52.74" x2="65.19" y2="52.74"/><line class="cls-3" x1="72.82" y1="60.36" x2="72.82" y2="45.11"/><line class="cls-4" x1="217.53" y1="480.36" x2="202.27" y2="480.36"/><line class="cls-4" x1="209.9" y1="487.98" x2="209.9" y2="472.73"/><line class="cls-1" x1="490.97" y1="485.03" x2="475.71" y2="485.03"/><line class="cls-1" x1="483.34" y1="492.66" x2="483.34" y2="477.4"/><polygon class="cls-6" points="185.13 499.66 187.56 494.62 182.12 495.23 185.13 499.66"/><polygon class="cls-7" points="501.76 418.16 499.83 412.91 496.49 417.25 501.76 418.16"/><circle class="cls-7" cx="311.05" cy="479.94" r="3.44"/><circle class="cls-8" cx="448.2" cy="279.08" r="3.44"/><circle class="cls-9" cx="379.76" cy="422.85" r="2.23"/><circle class="cls-11" cx="496.2" cy="380.53" r="3.85"/><line class="cls-1" x1="447.82" y1="452.25" x2="432.56" y2="452.25"/><line class="cls-1" x1="440.19" y1="459.88" x2="440.19" y2="444.62"/><line class="cls-2" x1="527.6" y1="297.14" x2="512.35" y2="297.14"/><line class="cls-2" x1="519.97" y1="304.77" x2="519.97" y2="289.51"/><line class="cls-3" x1="512.25" y1="188.38" x2="497" y2="188.38"/><line class="cls-3" x1="504.63" y1="196" x2="504.63" y2="180.75"/><line class="cls-4" x1="520.06" y1="134.98" x2="504.8" y2="134.98"/><line class="cls-4" x1="512.43" y1="142.61" x2="512.43" y2="127.35"/><line class="cls-1" x1="388.16" y1="406.22" x2="372.9" y2="406.22"/><line class="cls-1" x1="380.53" y1="413.85" x2="380.53" y2="398.59"/><line class="cls-3" x1="485.08" y1="436.05" x2="469.82" y2="436.05"/><line class="cls-3" x1="477.45" y1="443.68" x2="477.45" y2="428.42"/><line class="cls-5" x1="453.89" y1="408.92" x2="438.64" y2="408.92"/><line class="cls-5" x1="446.26" y1="416.54" x2="446.26" y2="401.29"/><polygon class="cls-6" points="467.82 60.31 470.26 55.27 464.81 55.89 467.82 60.31"/><polygon class="cls-7" points="512.29 257.79 510.36 252.53 507.02 256.88 512.29 257.79"/><circle class="cls-7" cx="349.36" cy="279.44" r="3.44"/><circle class="cls-7" cx="366.4" cy="447.56" r="3.44"/><circle class="cls-8" cx="413.78" cy="431.76" r="3.44"/><circle class="cls-9" cx="515.8" cy="49.88" r="2.23"/><circle class="cls-10" cx="469.87" cy="459.5" r="2.02"/><circle class="cls-11" cx="370.45" cy="244.25" r="3.85"/><line class="cls-4" x1="392.74" y1="452.66" x2="377.48" y2="452.66"/><line class="cls-4" x1="385.11" y1="460.28" x2="385.11" y2="445.03"/><line class="cls-3" x1="424.56" y1="489.66" x2="409.31" y2="489.66"/><line class="cls-3" x1="416.94" y1="497.28" x2="416.94" y2="482.03"/><line class="cls-1" x1="519.91" y1="331.56" x2="504.65" y2="331.56"/><line class="cls-1" x1="512.28" y1="339.19" x2="512.28" y2="323.94"/><circle class="cls-11" cx="244.92" cy="475.65" r="3.85"/></g></g></svg>