<svg xmlns="http://www.w3.org/2000/svg" viewBox="0 0 1055.6 521.66"><defs><style>.cls-1,.cls-2,.cls-3,.cls-4,.cls-5{fill:#331089;stroke-linecap:round;stroke-width:4px;}.cls-1{stroke:#ff6efc;}.cls-1,.cls-12,.cls-2,.cls-3,.cls-4,.cls-5{stroke-miterlimit:10;}.cls-2{stroke:#ffd671;}.cls-3{stroke:#ff7d7d;}.cls-4{stroke:#c5dfff;}.cls-5{stroke:#71ffbb;}.cls-6{fill:#ff6efc;}.cls-7{fill:#71ffbb;}.cls-8{fill:#fff;}.cls-9{fill:#ffd671;}.cls-10{fill:#c471ff;}.cls-11{fill:#71d0ff;}.cls-12{fill:#ff5252;stroke:#000;stroke-width:7px;}</style></defs><title>Asset 3</title><g id="Layer_2" data-name="Layer 2"><g id="Layer_2-2" data-name="Layer 2"><line class="cls-1" x1="50" y1="23.32" x2="50" y2="38.58"/><line class="cls-1" x1="57.63" y1="30.95" x2="42.37" y2="30.95"/><line class="cls-2" x1="116.01" y1="127.81" x2="116.01" y2="143.07"/><line class="cls-2" x1="123.64" y1="135.44" x2="108.38" y2="135.44"/><line class="cls-3" x1="29.75" y1="115.26" x2="29.75" y2="130.51"/><line class="cls-3" x1="37.38" y1="122.88" x2="22.12" y2="122.88"/><line class="cls-4" x1="94.55" y1="92.17" x2="94.55" y2="107.43"/><line class="cls-4" x1="102.17" y1="99.8" x2="86.92" y2="99.8"/><line class="cls-5" x1="33.8" y1="65.04" x2="33.8" y2="80.29"/><line class="cls-5" x1="41.43" y1="72.66" x2="26.17" y2="72.66"/><polygon class="cls-6" points="150.7 127.41 145.66 124.97 146.28 130.42 150.7 127.41"/><polygon class="cls-7" points="84.35 160.94 79.1 162.87 83.44 166.21 84.35 160.94"/><circle class="cls-7" cx="64.14" cy="80.65" r="3.44"/><circle class="cls-8" cx="143.92" cy="42.17" r="3.44"/><circle class="cls-9" cx="140.27" cy="79.43" r="2.23"/><circle class="cls-10" cx="104.03" cy="16.05" r="2.02"/><circle class="cls-11" cx="46.72" cy="160.83" r="3.85"/><line class="cls-1" x1="71.85" y1="130.29" x2="56.59" y2="130.29"/><line class="cls-1" x1="64.22" y1="137.92" x2="64.22" y2="122.67"/><line class="cls-2" x1="172.69" y1="221.82" x2="157.44" y2="221.82"/><line class="cls-2" x1="165.06" y1="229.45" x2="165.06" y2="214.19"/><line class="cls-3" x1="201.44" y1="135.56" x2="186.19" y2="135.56"/><line class="cls-3" x1="193.82" y1="143.19" x2="193.82" y2="127.93"/><line class="cls-4" x1="224.53" y1="200.36" x2="209.27" y2="200.36"/><line class="cls-4" x1="216.9" y1="207.98" x2="216.9" y2="192.73"/><line class="cls-1" x1="243.97" y1="125.03" x2="228.71" y2="125.03"/><line class="cls-1" x1="236.34" y1="132.66" x2="236.34" y2="117.4"/><polygon class="cls-6" points="192.13 219.66 194.56 214.62 189.12 215.23 192.13 219.66"/><polygon class="cls-7" points="155.76 190.16 153.83 184.91 150.49 189.25 155.76 190.16"/><circle class="cls-7" cx="236.05" cy="169.94" r="3.44"/><circle class="cls-8" cx="102.2" cy="51.08" r="3.44"/><circle class="cls-9" cx="33.76" cy="194.85" r="2.23"/><circle class="cls-11" cx="150.2" cy="152.53" r="3.85"/><line class="cls-1" x1="101.82" y1="224.25" x2="86.56" y2="224.25"/><line class="cls-1" x1="94.19" y1="231.88" x2="94.19" y2="216.62"/><line class="cls-3" x1="202.25" y1="23.38" x2="187" y2="23.38"/><line class="cls-3" x1="194.63" y1="31" x2="194.63" y2="15.75"/><line class="cls-4" x1="235.06" y1="39.98" x2="219.8" y2="39.98"/><line class="cls-4" x1="227.43" y1="47.61" x2="227.43" y2="32.35"/><line class="cls-1" x1="42.16" y1="178.22" x2="26.9" y2="178.22"/><line class="cls-1" x1="34.53" y1="185.85" x2="34.53" y2="170.59"/><line class="cls-3" x1="139.08" y1="208.05" x2="123.82" y2="208.05"/><line class="cls-3" x1="131.45" y1="215.68" x2="131.45" y2="200.42"/><line class="cls-5" x1="107.89" y1="180.92" x2="92.64" y2="180.92"/><line class="cls-5" x1="100.26" y1="188.54" x2="100.26" y2="173.29"/><polygon class="cls-6" points="199.82 96.13 202.26 91.1 196.81 91.71 199.82 96.13"/><polygon class="cls-7" points="166.29 29.79 164.36 24.53 161.02 28.88 166.29 29.79"/><circle class="cls-7" cx="244.36" cy="15.44" r="3.44"/><circle class="cls-7" cx="20.4" cy="219.56" r="3.44"/><circle class="cls-8" cx="67.78" cy="203.76" r="3.44"/><circle class="cls-9" cx="247.8" cy="85.71" r="2.23"/><circle class="cls-10" cx="123.87" cy="231.5" r="2.02"/><circle class="cls-11" cx="24.45" cy="16.25" r="3.85"/><line class="cls-4" x1="46.74" y1="224.66" x2="31.48" y2="224.66"/><line class="cls-4" x1="39.11" y1="232.28" x2="39.11" y2="217.03"/><line class="cls-3" x1="243.56" y1="224.66" x2="228.31" y2="224.66"/><line class="cls-3" x1="235.94" y1="232.28" x2="235.94" y2="217.03"/><line class="cls-1" x1="173.91" y1="103.56" x2="158.65" y2="103.56"/><line class="cls-1" x1="166.28" y1="111.19" x2="166.28" y2="95.94"/><circle class="cls-11" cx="192.92" cy="178.65" r="3.85"/><line class="cls-1" x1="145" y1="251.32" x2="145" y2="266.58"/><line class="cls-1" x1="152.63" y1="258.95" x2="137.37" y2="258.95"/><line class="cls-2" x1="211.01" y1="355.81" x2="211.01" y2="371.07"/><line class="cls-2" x1="218.64" y1="363.44" x2="203.38" y2="363.44"/><line class="cls-3" x1="124.75" y1="343.26" x2="124.75" y2="358.51"/><line class="cls-3" x1="132.38" y1="350.88" x2="117.12" y2="350.88"/><line class="cls-4" x1="189.55" y1="320.17" x2="189.55" y2="335.43"/><line class="cls-4" x1="197.17" y1="327.8" x2="181.92" y2="327.8"/><line class="cls-5" x1="128.8" y1="293.04" x2="128.8" y2="308.29"/><line class="cls-5" x1="136.43" y1="300.66" x2="121.17" y2="300.66"/><polygon class="cls-6" points="245.7 355.41 240.66 352.97 241.28 358.42 245.7 355.41"/><polygon class="cls-7" points="179.35 388.94 174.1 390.87 178.44 394.21 179.35 388.94"/><circle class="cls-7" cx="159.14" cy="308.65" r="3.44"/><circle class="cls-8" cx="238.92" cy="270.17" r="3.44"/><circle class="cls-9" cx="226.27" cy="309.43" r="2.23"/><circle class="cls-10" cx="199.03" cy="244.05" r="2.02"/><circle class="cls-11" cx="141.72" cy="388.83" r="3.85"/><line class="cls-2" x1="267.69" y1="449.82" x2="252.44" y2="449.82"/><line class="cls-2" x1="260.06" y1="457.45" x2="260.06" y2="442.19"/><line class="cls-3" x1="296.44" y1="363.56" x2="281.19" y2="363.56"/><line class="cls-3" x1="288.82" y1="371.19" x2="288.82" y2="355.93"/><line class="cls-4" x1="319.53" y1="428.36" x2="304.27" y2="428.36"/><line class="cls-4" x1="311.9" y1="435.98" x2="311.9" y2="420.73"/><line class="cls-1" x1="338.97" y1="353.03" x2="323.71" y2="353.03"/><line class="cls-1" x1="331.34" y1="360.66" x2="331.34" y2="345.4"/><polygon class="cls-6" points="287.13 447.66 289.56 442.62 284.12 443.23 287.13 447.66"/><polygon class="cls-7" points="250.76 418.16 248.83 412.91 245.49 417.25 250.76 418.16"/><circle class="cls-7" cx="331.05" cy="397.94" r="3.44"/><circle class="cls-8" cx="197.2" cy="279.08" r="3.44"/><circle class="cls-9" cx="128.76" cy="422.85" r="2.23"/><circle class="cls-11" cx="245.2" cy="380.53" r="3.85"/><line class="cls-1" x1="196.82" y1="452.25" x2="181.56" y2="452.25"/><line class="cls-1" x1="189.19" y1="459.88" x2="189.19" y2="444.62"/><line class="cls-2" x1="276.6" y1="297.14" x2="261.35" y2="297.14"/><line class="cls-2" x1="268.97" y1="304.77" x2="268.97" y2="289.51"/><line class="cls-3" x1="297.25" y1="251.38" x2="282" y2="251.38"/><line class="cls-3" x1="289.63" y1="259" x2="289.63" y2="243.75"/><line class="cls-4" x1="326.06" y1="286.98" x2="310.8" y2="286.98"/><line class="cls-4" x1="318.43" y1="294.61" x2="318.43" y2="279.35"/><line class="cls-1" x1="137.16" y1="406.22" x2="121.9" y2="406.22"/><line class="cls-1" x1="129.53" y1="413.85" x2="129.53" y2="398.59"/><line class="cls-3" x1="234.08" y1="436.05" x2="218.82" y2="436.05"/><line class="cls-3" x1="226.45" y1="443.68" x2="226.45" y2="428.42"/><line class="cls-5" x1="202.89" y1="408.92" x2="187.64" y2="408.92"/><line class="cls-5" x1="195.26" y1="416.54" x2="195.26" y2="401.29"/><polygon class="cls-6" points="294.82 324.13 297.26 319.1 291.81 319.71 294.82 324.13"/><polygon class="cls-7" points="261.29 257.79 259.36 252.53 256.02 256.88 261.29 257.79"/><circle class="cls-7" cx="339.36" cy="243.44" r="3.44"/><circle class="cls-7" cx="115.4" cy="447.56" r="3.44"/><circle class="cls-8" cx="162.78" cy="431.76" r="3.44"/><circle class="cls-9" cx="342.8" cy="313.71" r="2.23"/><circle class="cls-10" cx="218.87" cy="459.5" r="2.02"/><circle class="cls-11" cx="119.45" cy="244.25" r="3.85"/><line class="cls-4" x1="141.74" y1="452.66" x2="126.48" y2="452.66"/><line class="cls-4" x1="134.11" y1="460.28" x2="134.11" y2="445.03"/><line class="cls-3" x1="348.56" y1="473.66" x2="333.31" y2="473.66"/><line class="cls-3" x1="340.94" y1="481.28" x2="340.94" y2="466.03"/><line class="cls-1" x1="268.91" y1="331.56" x2="253.65" y2="331.56"/><line class="cls-1" x1="261.28" y1="339.19" x2="261.28" y2="323.94"/><circle class="cls-11" cx="287.92" cy="406.65" r="3.85"/><line class="cls-1" x1="297" y1="11.32" x2="297" y2="26.58"/><line class="cls-1" x1="304.63" y1="18.95" x2="289.37" y2="18.95"/><line class="cls-2" x1="363.01" y1="115.81" x2="363.01" y2="131.07"/><line class="cls-2" x1="370.64" y1="123.44" x2="355.38" y2="123.44"/><line class="cls-3" x1="276.75" y1="103.26" x2="276.75" y2="118.51"/><line class="cls-3" x1="284.38" y1="110.88" x2="269.12" y2="110.88"/><line class="cls-4" x1="341.55" y1="80.17" x2="341.55" y2="95.43"/><line class="cls-4" x1="349.17" y1="87.8" x2="333.92" y2="87.8"/><line class="cls-5" x1="280.8" y1="53.04" x2="280.8" y2="68.29"/><line class="cls-5" x1="288.43" y1="60.66" x2="273.17" y2="60.66"/><polygon class="cls-6" points="397.7 115.41 392.66 112.97 393.28 118.42 397.7 115.41"/><polygon class="cls-7" points="331.35 148.94 326.1 150.87 330.44 154.21 331.35 148.94"/><circle class="cls-7" cx="311.14" cy="68.65" r="3.44"/><circle class="cls-8" cx="390.92" cy="30.17" r="3.44"/><circle class="cls-9" cx="387.27" cy="67.43" r="2.23"/><circle class="cls-10" cx="351.03" cy="4.05" r="2.02"/><circle class="cls-11" cx="293.72" cy="148.83" r="3.85"/><line class="cls-1" x1="318.85" y1="118.29" x2="303.59" y2="118.29"/><line class="cls-1" x1="311.22" y1="125.92" x2="311.22" y2="110.67"/><line class="cls-2" x1="419.69" y1="209.82" x2="404.44" y2="209.82"/><line class="cls-2" x1="412.06" y1="217.45" x2="412.06" y2="202.19"/><line class="cls-3" x1="448.44" y1="123.56" x2="433.19" y2="123.56"/><line class="cls-3" x1="440.82" y1="131.19" x2="440.82" y2="115.93"/><line class="cls-4" x1="471.53" y1="188.36" x2="456.27" y2="188.36"/><line class="cls-4" x1="463.9" y1="195.98" x2="463.9" y2="180.73"/><line class="cls-1" x1="490.97" y1="113.03" x2="475.71" y2="113.03"/><line class="cls-1" x1="483.34" y1="120.66" x2="483.34" y2="105.4"/><polygon class="cls-6" points="439.13 207.66 441.56 202.62 436.12 203.23 439.13 207.66"/><polygon class="cls-7" points="402.76 178.16 400.83 172.91 397.49 177.25 402.76 178.16"/><circle class="cls-7" cx="483.05" cy="157.94" r="3.44"/><circle class="cls-8" cx="349.2" cy="39.08" r="3.44"/><circle class="cls-9" cx="280.76" cy="182.85" r="2.23"/><circle class="cls-11" cx="397.2" cy="140.53" r="3.85"/><line class="cls-1" x1="348.82" y1="212.25" x2="333.56" y2="212.25"/><line class="cls-1" x1="341.19" y1="219.88" x2="341.19" y2="204.62"/><line class="cls-2" x1="428.6" y1="57.14" x2="413.35" y2="57.14"/><line class="cls-2" x1="420.97" y1="64.77" x2="420.97" y2="49.51"/><line class="cls-3" x1="449.25" y1="11.38" x2="434" y2="11.38"/><line class="cls-3" x1="441.63" y1="19" x2="441.63" y2="3.75"/><line class="cls-4" x1="482.06" y1="27.98" x2="466.8" y2="27.98"/><line class="cls-4" x1="474.43" y1="35.61" x2="474.43" y2="20.35"/><line class="cls-1" x1="275.16" y1="154.22" x2="259.9" y2="154.22"/><line class="cls-1" x1="267.53" y1="161.85" x2="267.53" y2="146.59"/><line class="cls-3" x1="386.08" y1="196.05" x2="370.82" y2="196.05"/><line class="cls-3" x1="378.45" y1="203.68" x2="378.45" y2="188.42"/><polygon class="cls-6" points="446.82 84.13 449.26 79.1 443.81 79.71 446.82 84.13"/><polygon class="cls-7" points="413.29 17.79 411.36 12.53 408.02 16.88 413.29 17.79"/><circle class="cls-7" cx="491.36" cy="3.44" r="3.44"/><circle class="cls-7" cx="267.4" cy="207.56" r="3.44"/><circle class="cls-8" cx="314.78" cy="191.76" r="3.44"/><circle class="cls-9" cx="494.8" cy="73.71" r="2.23"/><circle class="cls-10" cx="370.87" cy="219.5" r="2.02"/><circle class="cls-11" cx="271.45" cy="4.25" r="3.85"/><line class="cls-4" x1="293.74" y1="212.66" x2="278.48" y2="212.66"/><line class="cls-4" x1="286.11" y1="220.28" x2="286.11" y2="205.03"/><line class="cls-1" x1="420.91" y1="91.56" x2="405.65" y2="91.56"/><line class="cls-1" x1="413.28" y1="99.19" x2="413.28" y2="83.94"/><circle class="cls-11" cx="439.92" cy="166.65" r="3.85"/><polygon class="cls-6" points="79.7 390.41 74.66 387.97 75.28 393.42 79.7 390.41"/><circle class="cls-8" cx="68.92" cy="277.17" r="3.44"/><circle class="cls-9" cx="65.27" cy="314.43" r="2.23"/><line class="cls-2" x1="111.69" y1="496.82" x2="96.44" y2="496.82"/><line class="cls-2" x1="104.06" y1="504.45" x2="104.06" y2="489.19"/><line class="cls-3" x1="42.44" y1="313.56" x2="27.19" y2="313.56"/><line class="cls-3" x1="34.82" y1="321.19" x2="34.82" y2="305.93"/><line class="cls-4" x1="39.53" y1="430.36" x2="24.27" y2="430.36"/><line class="cls-4" x1="31.9" y1="437.98" x2="31.9" y2="422.73"/><line class="cls-1" x1="58.97" y1="355.03" x2="43.71" y2="355.03"/><line class="cls-1" x1="51.34" y1="362.66" x2="51.34" y2="347.4"/><polygon class="cls-6" points="121.13 482.66 123.56 477.62 118.12 478.23 121.13 482.66"/><polygon class="cls-7" points="94.76 465.16 92.83 459.91 89.49 464.25 94.76 465.16"/><circle class="cls-7" cx="51.05" cy="399.94" r="3.44"/><circle class="cls-11" cx="89.2" cy="425.53" r="3.85"/><line class="cls-2" x1="106.6" y1="304.14" x2="91.35" y2="304.14"/><line class="cls-2" x1="98.97" y1="311.77" x2="98.97" y2="296.51"/><line class="cls-3" x1="17.25" y1="253.38" x2="2" y2="253.38"/><line class="cls-3" x1="9.63" y1="261" x2="9.63" y2="245.75"/><line class="cls-4" x1="50.06" y1="269.98" x2="34.8" y2="269.98"/><line class="cls-4" x1="42.43" y1="277.61" x2="42.43" y2="262.35"/><line class="cls-3" x1="78.08" y1="483.05" x2="62.82" y2="483.05"/><line class="cls-3" x1="70.45" y1="490.68" x2="70.45" y2="475.42"/><polygon class="cls-6" points="14.82 326.13 17.26 321.1 11.81 321.71 14.82 326.13"/><polygon class="cls-7" points="91.29 264.79 89.36 259.53 86.02 263.88 91.29 264.79"/><circle class="cls-7" cx="59.36" cy="245.44" r="3.44"/><circle class="cls-9" cx="62.8" cy="315.71" r="2.23"/><circle class="cls-10" cx="34.87" cy="475.5" r="2.02"/><line class="cls-3" x1="58.56" y1="454.66" x2="43.31" y2="454.66"/><line class="cls-3" x1="50.94" y1="462.28" x2="50.94" y2="447.03"/><line class="cls-1" x1="98.91" y1="338.56" x2="83.65" y2="338.56"/><line class="cls-1" x1="91.28" y1="346.19" x2="91.28" y2="330.94"/><circle class="cls-11" cx="16.92" cy="382.65" r="3.85"/><line class="cls-1" x1="396" y1="251.32" x2="396" y2="266.58"/><line class="cls-1" x1="403.63" y1="258.95" x2="388.37" y2="258.95"/><line class="cls-2" x1="462.01" y1="355.81" x2="462.01" y2="371.07"/><line class="cls-2" x1="469.64" y1="363.44" x2="454.38" y2="363.44"/><line class="cls-3" x1="375.75" y1="343.26" x2="375.75" y2="358.51"/><line class="cls-3" x1="383.38" y1="350.88" x2="368.12" y2="350.88"/><line class="cls-4" x1="440.55" y1="320.17" x2="440.55" y2="335.43"/><line class="cls-4" x1="448.17" y1="327.8" x2="432.92" y2="327.8"/><line class="cls-5" x1="379.8" y1="293.04" x2="379.8" y2="308.29"/><line class="cls-5" x1="387.43" y1="300.66" x2="372.17" y2="300.66"/><polygon class="cls-6" points="496.7 355.41 491.66 352.97 492.28 358.42 496.7 355.41"/><polygon class="cls-7" points="430.35 388.94 425.1 390.87 429.44 394.21 430.35 388.94"/><circle class="cls-7" cx="410.14" cy="308.65" r="3.44"/><circle class="cls-8" cx="489.92" cy="270.17" r="3.44"/><circle class="cls-9" cx="486.27" cy="307.43" r="2.23"/><circle class="cls-10" cx="450.03" cy="244.05" r="2.02"/><circle class="cls-11" cx="392.72" cy="388.83" r="3.85"/><line class="cls-1" x1="417.85" y1="358.29" x2="402.59" y2="358.29"/><line class="cls-1" x1="410.22" y1="365.92" x2="410.22" y2="350.67"/><line class="cls-2" x1="166.69" y1="477.82" x2="151.44" y2="477.82"/><line class="cls-2" x1="159.06" y1="485.45" x2="159.06" y2="470.19"/><line class="cls-3" x1="80.44" y1="52.74" x2="65.19" y2="52.74"/><line class="cls-3" x1="72.82" y1="60.36" x2="72.82" y2="45.11"/><line class="cls-4" x1="217.53" y1="480.36" x2="202.27" y2="480.36"/><line class="cls-4" x1="209.9" y1="487.98" x2="209.9" y2="472.73"/><line class="cls-1" x1="490.97" y1="485.03" x2="475.71" y2="485.03"/><line class="cls-1" x1="483.34" y1="492.66" x2="483.34" y2="477.4"/><polygon class="cls-6" points="185.13 499.66 187.56 494.62 182.12 495.23 185.13 499.66"/><polygon class="cls-7" points="501.76 418.16 499.83 412.91 496.49 417.25 501.76 418.16"/><circle class="cls-7" cx="311.05" cy="479.94" r="3.44"/><circle class="cls-8" cx="448.2" cy="279.08" r="3.44"/><circle class="cls-9" cx="379.76" cy="422.85" r="2.23"/><circle class="cls-11" cx="496.2" cy="380.53" r="3.85"/><line class="cls-1" x1="447.82" y1="452.25" x2="432.56" y2="452.25"/><line class="cls-1" x1="440.19" y1="459.88" x2="440.19" y2="444.62"/><line class="cls-2" x1="528.6" y1="501.14" x2="513.35" y2="501.14"/><line class="cls-2" x1="520.97" y1="508.77" x2="520.97" y2="493.51"/><line class="cls-3" x1="512.25" y1="188.38" x2="497" y2="188.38"/><line class="cls-3" x1="504.63" y1="196" x2="504.63" y2="180.75"/><line class="cls-4" x1="520.06" y1="134.98" x2="504.8" y2="134.98"/><line class="cls-4" x1="512.43" y1="142.61" x2="512.43" y2="127.35"/><line class="cls-1" x1="388.16" y1="406.22" x2="372.9" y2="406.22"/><line class="cls-1" x1="380.53" y1="413.85" x2="380.53" y2="398.59"/><line class="cls-3" x1="485.08" y1="436.05" x2="469.82" y2="436.05"/><line class="cls-3" x1="477.45" y1="443.68" x2="477.45" y2="428.42"/><line class="cls-5" x1="453.89" y1="408.92" x2="438.64" y2="408.92"/><line class="cls-5" x1="446.26" y1="416.54" x2="446.26" y2="401.29"/><polygon class="cls-6" points="467.82 60.31 470.26 55.27 464.81 55.89 467.82 60.31"/><polygon class="cls-7" points="512.29 257.79 510.36 252.53 507.02 256.88 512.29 257.79"/><circle class="cls-7" cx="349.36" cy="279.44" r="3.44"/><circle class="cls-7" cx="366.4" cy="447.56" r="3.44"/><circle class="cls-8" cx="413.78" cy="431.76" r="3.44"/><circle class="cls-9" cx="515.8" cy="49.88" r="2.23"/><circle class="cls-10" cx="469.87" cy="459.5" r="2.02"/><circle class="cls-11" cx="370.45" cy="244.25" r="3.85"/><line class="cls-4" x1="392.74" y1="452.66" x2="377.48" y2="452.66"/><line class="cls-4" x1="385.11" y1="460.28" x2="385.11" y2="445.03"/><line class="cls-3" x1="424.56" y1="489.66" x2="409.31" y2="489.66"/><line class="cls-3" x1="416.94" y1="497.28" x2="416.94" y2="482.03"/><line class="cls-1" x1="519.91" y1="331.56" x2="504.65" y2="331.56"/><line class="cls-1" x1="512.28" y1="339.19" x2="512.28" y2="323.94"/><circle class="cls-11" cx="244.92" cy="475.65" r="3.85"/><circle class="cls-10" cx="85.03" cy="512.05" r="2.02"/><circle class="cls-7" cx="225.36" cy="511.44" r="3.44"/><circle class="cls-11" cx="5.45" cy="512.25" r="3.85"/><circle class="cls-10" cx="332.03" cy="500.05" r="2.02"/><polygon class="cls-7" points="394.29 513.79 392.36 508.53 389.02 512.88 394.29 513.79"/><circle class="cls-7" cx="472.36" cy="499.44" r="3.44"/><circle class="cls-11" cx="252.45" cy="500.25" r="3.85"/><line class="cls-1" x1="576" y1="50.32" x2="576" y2="65.58"/><line class="cls-1" x1="583.63" y1="57.95" x2="568.37" y2="57.95"/><line class="cls-2" x1="642.01" y1="154.81" x2="642.01" y2="170.07"/><line class="cls-2" x1="649.64" y1="162.44" x2="634.38" y2="162.44"/><line class="cls-3" x1="555.75" y1="142.26" x2="555.75" y2="157.51"/><line class="cls-3" x1="563.38" y1="149.88" x2="548.12" y2="149.88"/><line class="cls-4" x1="620.55" y1="119.17" x2="620.55" y2="134.43"/><line class="cls-4" x1="628.17" y1="126.8" x2="612.92" y2="126.8"/><line class="cls-5" x1="527.8" y1="93.04" x2="527.8" y2="108.29"/><line class="cls-5" x1="535.43" y1="100.66" x2="520.17" y2="100.66"/><polygon class="cls-6" points="676.7 154.41 671.66 151.97 672.28 157.42 676.7 154.41"/><polygon class="cls-7" points="610.35 187.94 605.1 189.87 609.44 193.21 610.35 187.94"/><circle class="cls-7" cx="590.14" cy="107.65" r="3.44"/><circle class="cls-8" cx="669.92" cy="69.17" r="3.44"/><circle class="cls-9" cx="666.27" cy="106.43" r="2.23"/><circle class="cls-10" cx="630.03" cy="43.05" r="2.02"/><circle class="cls-11" cx="572.72" cy="187.83" r="3.85"/><line class="cls-1" x1="597.85" y1="157.29" x2="582.59" y2="157.29"/><line class="cls-1" x1="590.22" y1="164.92" x2="590.22" y2="149.67"/><line class="cls-2" x1="698.69" y1="248.82" x2="683.44" y2="248.82"/><line class="cls-2" x1="691.06" y1="256.45" x2="691.06" y2="241.19"/><line class="cls-3" x1="727.44" y1="162.56" x2="712.19" y2="162.56"/><line class="cls-3" x1="719.82" y1="170.19" x2="719.82" y2="154.93"/><line class="cls-4" x1="750.53" y1="227.36" x2="735.27" y2="227.36"/><line class="cls-4" x1="742.9" y1="234.98" x2="742.9" y2="219.73"/><line class="cls-1" x1="769.97" y1="152.03" x2="754.71" y2="152.03"/><line class="cls-1" x1="762.34" y1="159.66" x2="762.34" y2="144.4"/><polygon class="cls-6" points="718.13 246.66 720.56 241.62 715.12 242.23 718.13 246.66"/><polygon class="cls-7" points="681.76 217.16 679.83 211.91 676.49 216.25 681.76 217.16"/><circle class="cls-7" cx="762.05" cy="196.94" r="3.44"/><circle class="cls-8" cx="628.2" cy="78.08" r="3.44"/><circle class="cls-9" cx="559.76" cy="221.85" r="2.23"/><circle class="cls-11" cx="676.2" cy="179.53" r="3.85"/><line class="cls-1" x1="627.82" y1="251.25" x2="612.56" y2="251.25"/><line class="cls-1" x1="620.19" y1="258.88" x2="620.19" y2="243.62"/><line class="cls-2" x1="707.6" y1="96.14" x2="692.35" y2="96.14"/><line class="cls-2" x1="699.97" y1="103.77" x2="699.97" y2="88.51"/><line class="cls-3" x1="728.25" y1="50.38" x2="713" y2="50.38"/><line class="cls-3" x1="720.63" y1="58" x2="720.63" y2="42.75"/><line class="cls-4" x1="761.06" y1="66.98" x2="745.8" y2="66.98"/><line class="cls-4" x1="753.43" y1="74.61" x2="753.43" y2="59.35"/><line class="cls-1" x1="568.16" y1="205.22" x2="552.9" y2="205.22"/><line class="cls-1" x1="560.53" y1="212.85" x2="560.53" y2="197.59"/><line class="cls-3" x1="665.08" y1="235.05" x2="649.82" y2="235.05"/><line class="cls-3" x1="657.45" y1="242.68" x2="657.45" y2="227.42"/><line class="cls-5" x1="633.89" y1="207.92" x2="618.64" y2="207.92"/><line class="cls-5" x1="626.26" y1="215.54" x2="626.26" y2="200.29"/><polygon class="cls-6" points="725.82 123.13 728.26 118.1 722.81 118.71 725.82 123.13"/><polygon class="cls-7" points="692.29 56.79 690.36 51.53 687.02 55.88 692.29 56.79"/><circle class="cls-7" cx="770.36" cy="42.44" r="3.44"/><circle class="cls-7" cx="546.4" cy="246.56" r="3.44"/><circle class="cls-8" cx="593.78" cy="230.76" r="3.44"/><circle class="cls-9" cx="773.8" cy="112.71" r="2.23"/><circle class="cls-10" cx="649.87" cy="258.5" r="2.02"/><circle class="cls-11" cx="550.45" cy="43.25" r="3.85"/><line class="cls-4" x1="572.74" y1="251.66" x2="557.48" y2="251.66"/><line class="cls-4" x1="565.11" y1="259.28" x2="565.11" y2="244.03"/><line class="cls-3" x1="769.56" y1="251.66" x2="754.31" y2="251.66"/><line class="cls-3" x1="761.94" y1="259.28" x2="761.94" y2="244.03"/><line class="cls-1" x1="699.91" y1="130.56" x2="684.65" y2="130.56"/><line class="cls-1" x1="692.28" y1="138.19" x2="692.28" y2="122.94"/><circle class="cls-11" cx="718.92" cy="205.65" r="3.85"/><line class="cls-1" x1="671" y1="278.32" x2="671" y2="293.58"/><line class="cls-1" x1="678.63" y1="285.95" x2="663.37" y2="285.95"/><line class="cls-2" x1="737.01" y1="382.81" x2="737.01" y2="398.07"/><line class="cls-2" x1="744.64" y1="390.44" x2="729.38" y2="390.44"/><line class="cls-3" x1="650.75" y1="370.26" x2="650.75" y2="385.51"/><line class="cls-3" x1="658.38" y1="377.88" x2="643.12" y2="377.88"/><line class="cls-4" x1="715.55" y1="347.17" x2="715.55" y2="362.43"/><line class="cls-4" x1="723.17" y1="354.8" x2="707.92" y2="354.8"/><line class="cls-5" x1="654.8" y1="320.04" x2="654.8" y2="335.29"/><line class="cls-5" x1="662.43" y1="327.66" x2="647.17" y2="327.66"/><polygon class="cls-6" points="771.7 382.41 766.66 379.97 767.28 385.42 771.7 382.41"/><polygon class="cls-7" points="705.35 415.94 700.1 417.87 704.44 421.21 705.35 415.94"/><circle class="cls-7" cx="685.14" cy="335.65" r="3.44"/><circle class="cls-8" cx="764.92" cy="297.17" r="3.44"/><circle class="cls-9" cx="752.27" cy="336.43" r="2.23"/><circle class="cls-10" cx="725.03" cy="271.05" r="2.02"/><circle class="cls-11" cx="667.72" cy="415.83" r="3.85"/><line class="cls-1" x1="692.85" y1="385.29" x2="677.59" y2="385.29"/><line class="cls-1" x1="685.22" y1="392.92" x2="685.22" y2="377.67"/><line class="cls-2" x1="793.69" y1="476.82" x2="778.44" y2="476.82"/><line class="cls-2" x1="786.06" y1="484.45" x2="786.06" y2="469.19"/><line class="cls-3" x1="822.44" y1="390.56" x2="807.19" y2="390.56"/><line class="cls-3" x1="814.82" y1="398.19" x2="814.82" y2="382.93"/><line class="cls-4" x1="845.53" y1="455.36" x2="830.27" y2="455.36"/><line class="cls-4" x1="837.9" y1="462.98" x2="837.9" y2="447.73"/><line class="cls-1" x1="864.97" y1="380.03" x2="849.71" y2="380.03"/><line class="cls-1" x1="857.34" y1="387.66" x2="857.34" y2="372.4"/><polygon class="cls-6" points="813.13 474.66 815.56 469.62 810.12 470.23 813.13 474.66"/><polygon class="cls-7" points="776.76 445.16 774.83 439.91 771.49 444.25 776.76 445.16"/><circle class="cls-7" cx="857.05" cy="424.94" r="3.44"/><circle class="cls-8" cx="723.2" cy="306.08" r="3.44"/><circle class="cls-9" cx="654.76" cy="449.85" r="2.23"/><circle class="cls-11" cx="771.2" cy="407.53" r="3.85"/><line class="cls-1" x1="722.82" y1="479.25" x2="707.56" y2="479.25"/><line class="cls-1" x1="715.19" y1="486.88" x2="715.19" y2="471.62"/><line class="cls-2" x1="802.6" y1="324.14" x2="787.35" y2="324.14"/><line class="cls-2" x1="794.97" y1="331.77" x2="794.97" y2="316.51"/><line class="cls-3" x1="823.25" y1="278.38" x2="808" y2="278.38"/><line class="cls-3" x1="815.63" y1="286" x2="815.63" y2="270.75"/><line class="cls-4" x1="852.06" y1="313.98" x2="836.8" y2="313.98"/><line class="cls-4" x1="844.43" y1="321.61" x2="844.43" y2="306.35"/><line class="cls-1" x1="663.16" y1="433.22" x2="647.9" y2="433.22"/><line class="cls-1" x1="655.53" y1="440.85" x2="655.53" y2="425.59"/><line class="cls-3" x1="760.08" y1="463.05" x2="744.82" y2="463.05"/><line class="cls-3" x1="752.45" y1="470.68" x2="752.45" y2="455.42"/><line class="cls-5" x1="728.89" y1="435.92" x2="713.64" y2="435.92"/><line class="cls-5" x1="721.26" y1="443.54" x2="721.26" y2="428.29"/><polygon class="cls-6" points="820.82 351.13 823.26 346.1 817.81 346.71 820.82 351.13"/><polygon class="cls-7" points="787.29 284.79 785.36 279.53 782.02 283.88 787.29 284.79"/><circle class="cls-7" cx="865.36" cy="270.44" r="3.44"/><circle class="cls-7" cx="641.4" cy="474.56" r="3.44"/><circle class="cls-8" cx="688.78" cy="458.76" r="3.44"/><circle class="cls-9" cx="868.8" cy="340.71" r="2.23"/><circle class="cls-10" cx="744.87" cy="486.5" r="2.02"/><circle class="cls-11" cx="645.45" cy="271.25" r="3.85"/><line class="cls-4" x1="667.74" y1="479.66" x2="652.48" y2="479.66"/><line class="cls-4" x1="660.11" y1="487.28" x2="660.11" y2="472.03"/><line class="cls-3" x1="874.56" y1="500.66" x2="859.31" y2="500.66"/><line class="cls-3" x1="866.94" y1="508.28" x2="866.94" y2="493.03"/><line class="cls-1" x1="794.91" y1="358.56" x2="779.65" y2="358.56"/><line class="cls-1" x1="787.28" y1="366.19" x2="787.28" y2="350.94"/><circle class="cls-11" cx="813.92" cy="433.65" r="3.85"/><line class="cls-1" x1="823" y1="38.32" x2="823" y2="53.58"/><line class="cls-1" x1="830.63" y1="45.95" x2="815.37" y2="45.95"/><line class="cls-2" x1="889.01" y1="142.81" x2="889.01" y2="158.07"/><line class="cls-2" x1="896.64" y1="150.44" x2="881.38" y2="150.44"/><line class="cls-3" x1="802.75" y1="130.26" x2="802.75" y2="145.51"/><line class="cls-3" x1="810.38" y1="137.88" x2="795.12" y2="137.88"/><line class="cls-5" x1="806.8" y1="80.04" x2="806.8" y2="95.29"/><line class="cls-5" x1="814.43" y1="87.66" x2="799.17" y2="87.66"/><polygon class="cls-6" points="923.7 142.41 918.66 139.97 919.28 145.42 923.7 142.41"/><polygon class="cls-7" points="857.35 175.94 852.1 177.87 856.44 181.21 857.35 175.94"/><circle class="cls-7" cx="837.14" cy="95.65" r="3.44"/><circle class="cls-8" cx="916.92" cy="57.17" r="3.44"/><circle class="cls-9" cx="913.27" cy="94.43" r="2.23"/><circle class="cls-10" cx="877.03" cy="31.05" r="2.02"/><circle class="cls-11" cx="819.72" cy="175.83" r="3.85"/><line class="cls-1" x1="844.85" y1="145.29" x2="829.59" y2="145.29"/><line class="cls-1" x1="837.22" y1="152.92" x2="837.22" y2="137.67"/><line class="cls-2" x1="945.69" y1="236.82" x2="930.44" y2="236.82"/><line class="cls-2" x1="938.06" y1="244.45" x2="938.06" y2="229.19"/><line class="cls-3" x1="974.44" y1="150.56" x2="959.19" y2="150.56"/><line class="cls-3" x1="966.82" y1="158.19" x2="966.82" y2="142.93"/><line class="cls-4" x1="997.53" y1="215.36" x2="982.27" y2="215.36"/><line class="cls-4" x1="989.9" y1="222.98" x2="989.9" y2="207.73"/><line class="cls-1" x1="1016.97" y1="140.03" x2="1001.71" y2="140.03"/><line class="cls-1" x1="1009.34" y1="147.66" x2="1009.34" y2="132.4"/><polygon class="cls-6" points="965.13 234.66 967.56 229.62 962.12 230.23 965.13 234.66"/><polygon class="cls-7" points="928.76 205.16 926.83 199.91 923.49 204.25 928.76 205.16"/><circle class="cls-7" cx="1009.05" cy="184.94" r="3.44"/><circle class="cls-8" cx="875.2" cy="66.08" r="3.44"/><circle class="cls-9" cx="806.76" cy="209.85" r="2.23"/><circle class="cls-11" cx="923.2" cy="167.53" r="3.85"/><line class="cls-1" x1="874.82" y1="239.25" x2="859.56" y2="239.25"/><line class="cls-1" x1="867.19" y1="246.88" x2="867.19" y2="231.62"/><line class="cls-2" x1="954.6" y1="84.14" x2="939.35" y2="84.14"/><line class="cls-2" x1="946.97" y1="91.77" x2="946.97" y2="76.51"/><line class="cls-3" x1="975.25" y1="38.38" x2="960" y2="38.38"/><line class="cls-3" x1="967.63" y1="46" x2="967.63" y2="30.75"/><line class="cls-4" x1="1008.06" y1="54.98" x2="992.8" y2="54.98"/><line class="cls-4" x1="1000.43" y1="62.61" x2="1000.43" y2="47.35"/><line class="cls-1" x1="801.16" y1="181.22" x2="785.9" y2="181.22"/><line class="cls-1" x1="793.53" y1="188.85" x2="793.53" y2="173.59"/><line class="cls-3" x1="912.08" y1="223.05" x2="896.82" y2="223.05"/><line class="cls-3" x1="904.45" y1="230.68" x2="904.45" y2="215.42"/><line class="cls-5" x1="880.89" y1="195.92" x2="865.64" y2="195.92"/><line class="cls-5" x1="873.26" y1="203.54" x2="873.26" y2="188.29"/><polygon class="cls-6" points="972.82 111.13 975.26 106.1 969.81 106.71 972.82 111.13"/><polygon class="cls-7" points="939.29 44.79 937.36 39.53 934.02 43.88 939.29 44.79"/><circle class="cls-7" cx="1017.36" cy="30.44" r="3.44"/><circle class="cls-7" cx="793.4" cy="234.56" r="3.44"/><circle class="cls-8" cx="840.78" cy="218.76" r="3.44"/><circle class="cls-9" cx="1020.8" cy="100.71" r="2.23"/><circle class="cls-10" cx="896.87" cy="246.5" r="2.02"/><circle class="cls-11" cx="797.45" cy="31.25" r="3.85"/><line class="cls-4" x1="819.74" y1="239.66" x2="804.48" y2="239.66"/><line class="cls-4" x1="812.11" y1="247.28" x2="812.11" y2="232.03"/><line class="cls-3" x1="1016.56" y1="239.66" x2="1001.31" y2="239.66"/><line class="cls-3" x1="1008.94" y1="247.28" x2="1008.94" y2="232.03"/><line class="cls-1" x1="946.91" y1="118.56" x2="931.65" y2="118.56"/><line class="cls-1" x1="939.28" y1="126.19" x2="939.28" y2="110.94"/><circle class="cls-11" cx="965.92" cy="193.65" r="3.85"/><polygon class="cls-6" points="605.7 417.41 600.66 414.97 601.28 420.42 605.7 417.41"/><circle class="cls-8" cx="594.92" cy="304.17" r="3.44"/><circle class="cls-9" cx="591.27" cy="341.43" r="2.23"/><line class="cls-3" x1="568.44" y1="340.56" x2="553.19" y2="340.56"/><line class="cls-3" x1="560.82" y1="348.19" x2="560.82" y2="332.93"/><line class="cls-4" x1="565.53" y1="457.36" x2="550.27" y2="457.36"/><line class="cls-4" x1="557.9" y1="464.98" x2="557.9" y2="449.73"/><line class="cls-1" x1="550.97" y1="388.03" x2="535.71" y2="388.03"/><line class="cls-1" x1="543.34" y1="395.66" x2="543.34" y2="380.4"/><line class="cls-1" x1="587.97" y1="394.03" x2="572.71" y2="394.03"/><line class="cls-1" x1="580.34" y1="401.66" x2="580.34" y2="386.4"/><polygon class="cls-6" points="647.13 509.66 649.56 504.62 644.12 505.23 647.13 509.66"/><polygon class="cls-7" points="620.76 492.16 618.83 486.91 615.49 491.25 620.76 492.16"/><circle class="cls-7" cx="577.05" cy="426.94" r="3.44"/><circle class="cls-11" cx="615.2" cy="452.53" r="3.85"/><line class="cls-2" x1="632.6" y1="331.14" x2="617.35" y2="331.14"/><line class="cls-2" x1="624.97" y1="338.77" x2="624.97" y2="323.51"/><line class="cls-3" x1="543.25" y1="280.38" x2="528" y2="280.38"/><line class="cls-3" x1="535.63" y1="288" x2="535.63" y2="272.75"/><line class="cls-4" x1="576.06" y1="296.98" x2="560.8" y2="296.98"/><line class="cls-4" x1="568.43" y1="304.61" x2="568.43" y2="289.35"/><line class="cls-4" x1="487.06" y1="230.98" x2="471.8" y2="230.98"/><line class="cls-4" x1="479.43" y1="238.61" x2="479.43" y2="223.35"/><line class="cls-3" x1="604.08" y1="510.05" x2="588.82" y2="510.05"/><line class="cls-3" x1="596.45" y1="517.68" x2="596.45" y2="502.42"/><polygon class="cls-6" points="540.82 353.13 543.26 348.1 537.81 348.71 540.82 353.13"/><polygon class="cls-7" points="617.29 291.79 615.36 286.53 612.02 290.88 617.29 291.79"/><circle class="cls-7" cx="585.36" cy="272.44" r="3.44"/><circle class="cls-9" cx="588.8" cy="342.71" r="2.23"/><circle class="cls-10" cx="560.87" cy="502.5" r="2.02"/><line class="cls-3" x1="584.56" y1="481.66" x2="569.31" y2="481.66"/><line class="cls-3" x1="576.94" y1="489.28" x2="576.94" y2="474.03"/><line class="cls-1" x1="624.91" y1="365.56" x2="609.65" y2="365.56"/><line class="cls-1" x1="617.28" y1="373.19" x2="617.28" y2="357.94"/><circle class="cls-11" cx="530.92" cy="428.65" r="3.85"/><line class="cls-1" x1="922" y1="278.32" x2="922" y2="293.58"/><line class="cls-1" x1="929.63" y1="285.95" x2="914.37" y2="285.95"/><line class="cls-2" x1="988.01" y1="382.81" x2="988.01" y2="398.07"/><line class="cls-2" x1="995.64" y1="390.44" x2="980.38" y2="390.44"/><line class="cls-3" x1="901.75" y1="370.26" x2="901.75" y2="385.51"/><line class="cls-3" x1="909.38" y1="377.88" x2="894.12" y2="377.88"/><line class="cls-4" x1="966.55" y1="347.17" x2="966.55" y2="362.43"/><line class="cls-4" x1="974.17" y1="354.8" x2="958.92" y2="354.8"/><line class="cls-5" x1="905.8" y1="320.04" x2="905.8" y2="335.29"/><line class="cls-5" x1="913.43" y1="327.66" x2="898.17" y2="327.66"/><polygon class="cls-6" points="1022.7 382.41 1017.66 379.97 1018.28 385.42 1022.7 382.41"/><polygon class="cls-7" points="956.35 415.94 951.1 417.87 955.44 421.21 956.35 415.94"/><circle class="cls-7" cx="936.14" cy="335.65" r="3.44"/><circle class="cls-8" cx="1015.92" cy="297.17" r="3.44"/><circle class="cls-9" cx="1012.27" cy="334.43" r="2.23"/><circle class="cls-10" cx="976.03" cy="271.05" r="2.02"/><circle class="cls-11" cx="918.72" cy="415.83" r="3.85"/><line class="cls-1" x1="943.85" y1="385.29" x2="928.59" y2="385.29"/><line class="cls-1" x1="936.22" y1="392.92" x2="936.22" y2="377.67"/><line class="cls-2" x1="692.69" y1="504.82" x2="677.44" y2="504.82"/><line class="cls-2" x1="685.06" y1="512.45" x2="685.06" y2="497.19"/><line class="cls-3" x1="606.44" y1="79.74" x2="591.19" y2="79.74"/><line class="cls-3" x1="598.82" y1="87.36" x2="598.82" y2="72.11"/><line class="cls-4" x1="743.53" y1="507.36" x2="728.27" y2="507.36"/><line class="cls-4" x1="735.9" y1="514.98" x2="735.9" y2="499.73"/><line class="cls-1" x1="1016.97" y1="512.03" x2="1001.71" y2="512.03"/><line class="cls-1" x1="1009.34" y1="519.66" x2="1009.34" y2="504.4"/><polygon class="cls-7" points="1027.76 445.16 1025.83 439.91 1022.49 444.25 1027.76 445.16"/><circle class="cls-7" cx="837.05" cy="506.94" r="3.44"/><circle class="cls-8" cx="974.2" cy="306.08" r="3.44"/><circle class="cls-9" cx="905.76" cy="449.85" r="2.23"/><circle class="cls-11" cx="1022.2" cy="407.53" r="3.85"/><line class="cls-1" x1="973.82" y1="479.25" x2="958.56" y2="479.25"/><line class="cls-1" x1="966.19" y1="486.88" x2="966.19" y2="471.62"/><line class="cls-2" x1="1053.6" y1="324.14" x2="1038.35" y2="324.14"/><line class="cls-2" x1="1045.97" y1="331.77" x2="1045.97" y2="316.51"/><line class="cls-3" x1="1038.25" y1="215.38" x2="1023" y2="215.38"/><line class="cls-3" x1="1030.63" y1="223" x2="1030.63" y2="207.75"/><line class="cls-4" x1="1046.06" y1="161.98" x2="1030.8" y2="161.98"/><line class="cls-4" x1="1038.43" y1="169.61" x2="1038.43" y2="154.35"/><line class="cls-1" x1="914.16" y1="433.22" x2="898.9" y2="433.22"/><line class="cls-1" x1="906.53" y1="440.85" x2="906.53" y2="425.59"/><line class="cls-3" x1="1011.08" y1="463.05" x2="995.82" y2="463.05"/><line class="cls-3" x1="1003.45" y1="470.68" x2="1003.45" y2="455.42"/><line class="cls-5" x1="979.89" y1="435.92" x2="964.64" y2="435.92"/><line class="cls-5" x1="972.26" y1="443.54" x2="972.26" y2="428.29"/><polygon class="cls-6" points="993.82 87.31 996.26 82.27 990.81 82.89 993.82 87.31"/><polygon class="cls-7" points="1038.29 284.79 1036.36 279.53 1033.02 283.88 1038.29 284.79"/><circle class="cls-7" cx="875.36" cy="306.44" r="3.44"/><circle class="cls-7" cx="892.4" cy="474.56" r="3.44"/><circle class="cls-8" cx="939.78" cy="458.76" r="3.44"/><circle class="cls-9" cx="1041.8" cy="76.88" r="2.23"/><circle class="cls-10" cx="995.87" cy="486.5" r="2.02"/><circle class="cls-11" cx="896.45" cy="271.25" r="3.85"/><line class="cls-4" x1="918.74" y1="479.66" x2="903.48" y2="479.66"/><line class="cls-4" x1="911.11" y1="487.28" x2="911.11" y2="472.03"/><line class="cls-1" x1="1045.91" y1="358.56" x2="1030.65" y2="358.56"/><line class="cls-1" x1="1038.28" y1="366.19" x2="1038.28" y2="350.94"/><circle class="cls-11" cx="770.92" cy="502.65" r="3.85"/><path class="cls-12" d="M179.72,0" transform="translate(0 -32.61)"/></g></g></svg>