<svg xmlns="http://www.w3.org/2000/svg" viewBox="0 0 1074.6 1044.45"><defs><style>.cls-1,.cls-2,.cls-3,.cls-4,.cls-5{fill:#331089;stroke-linecap:round;stroke-miterlimit:10;stroke-width:4px;}.cls-1{stroke:#ff6efc;}.cls-2{stroke:#ffd671;}.cls-3{stroke:#ff7d7d;}.cls-4{stroke:#c5dfff;}.cls-5{stroke:#71ffbb;}.cls-6{fill:#ff6efc;}.cls-7{fill:#71ffbb;}.cls-8{fill:#fff;}.cls-9{fill:#ffd671;}.cls-10{fill:#c471ff;}.cls-11{fill:#71d0ff;}</style></defs><title>Asset 2</title><g id="Layer_2" data-name="Layer 2"><g id="Layer_2-2" data-name="Layer 2"><line class="cls-1" x1="69" y1="23.32" x2="69" y2="38.58"/><line class="cls-1" x1="76.63" y1="30.95" x2="61.37" y2="30.95"/><line class="cls-2" x1="135.01" y1="127.81" x2="135.01" y2="143.07"/><line class="cls-2" x1="142.64" y1="135.44" x2="127.38" y2="135.44"/><line class="cls-3" x1="48.75" y1="115.26" x2="48.75" y2="130.51"/><line class="cls-3" x1="56.38" y1="122.88" x2="41.12" y2="122.88"/><line class="cls-4" x1="113.55" y1="92.17" x2="113.55" y2="107.43"/><line class="cls-4" x1="121.17" y1="99.8" x2="105.92" y2="99.8"/><line class="cls-5" x1="52.8" y1="65.04" x2="52.8" y2="80.29"/><line class="cls-5" x1="60.43" y1="72.66" x2="45.17" y2="72.66"/><polygon class="cls-6" points="169.7 127.41 164.66 124.97 165.28 130.42 169.7 127.41"/><polygon class="cls-7" points="103.35 160.94 98.1 162.87 102.44 166.21 103.35 160.94"/><circle class="cls-7" cx="83.14" cy="80.65" r="3.44"/><circle class="cls-8" cx="162.92" cy="42.17" r="3.44"/><circle class="cls-9" cx="159.27" cy="79.43" r="2.23"/><circle class="cls-10" cx="123.03" cy="16.05" r="2.02"/><circle class="cls-11" cx="65.72" cy="160.83" r="3.85"/><line class="cls-1" x1="90.85" y1="130.29" x2="75.59" y2="130.29"/><line class="cls-1" x1="83.22" y1="137.92" x2="83.22" y2="122.67"/><line class="cls-2" x1="191.69" y1="221.82" x2="176.44" y2="221.82"/><line class="cls-2" x1="184.06" y1="229.45" x2="184.06" y2="214.19"/><line class="cls-3" x1="220.44" y1="135.56" x2="205.19" y2="135.56"/><line class="cls-3" x1="212.82" y1="143.19" x2="212.82" y2="127.93"/><line class="cls-4" x1="243.53" y1="200.36" x2="228.27" y2="200.36"/><line class="cls-4" x1="235.9" y1="207.98" x2="235.9" y2="192.73"/><line class="cls-1" x1="262.97" y1="125.03" x2="247.71" y2="125.03"/><line class="cls-1" x1="255.34" y1="132.66" x2="255.34" y2="117.4"/><polygon class="cls-6" points="211.13 219.66 213.56 214.62 208.12 215.23 211.13 219.66"/><polygon class="cls-7" points="174.76 190.16 172.83 184.91 169.49 189.25 174.76 190.16"/><circle class="cls-7" cx="255.05" cy="169.94" r="3.44"/><circle class="cls-8" cx="121.2" cy="51.08" r="3.44"/><circle class="cls-9" cx="52.76" cy="194.85" r="2.23"/><circle class="cls-11" cx="169.2" cy="152.53" r="3.85"/><line class="cls-1" x1="120.82" y1="224.25" x2="105.56" y2="224.25"/><line class="cls-1" x1="113.19" y1="231.88" x2="113.19" y2="216.62"/><line class="cls-2" x1="200.6" y1="69.14" x2="185.35" y2="69.14"/><line class="cls-2" x1="192.97" y1="76.77" x2="192.97" y2="61.51"/><line class="cls-3" x1="221.25" y1="23.38" x2="206" y2="23.38"/><line class="cls-3" x1="213.63" y1="31" x2="213.63" y2="15.75"/><line class="cls-4" x1="254.06" y1="39.98" x2="238.8" y2="39.98"/><line class="cls-4" x1="246.43" y1="47.61" x2="246.43" y2="32.35"/><line class="cls-1" x1="61.16" y1="178.22" x2="45.9" y2="178.22"/><line class="cls-1" x1="53.53" y1="185.85" x2="53.53" y2="170.59"/><line class="cls-3" x1="158.08" y1="208.05" x2="142.82" y2="208.05"/><line class="cls-3" x1="150.45" y1="215.68" x2="150.45" y2="200.42"/><line class="cls-5" x1="126.89" y1="180.92" x2="111.64" y2="180.92"/><line class="cls-5" x1="119.26" y1="188.54" x2="119.26" y2="173.29"/><polygon class="cls-6" points="218.82 96.13 221.26 91.1 215.81 91.71 218.82 96.13"/><polygon class="cls-7" points="185.29 29.79 183.36 24.53 180.02 28.88 185.29 29.79"/><circle class="cls-7" cx="263.36" cy="15.44" r="3.44"/><circle class="cls-7" cx="39.4" cy="219.56" r="3.44"/><circle class="cls-8" cx="86.78" cy="203.76" r="3.44"/><circle class="cls-9" cx="266.8" cy="85.71" r="2.23"/><circle class="cls-10" cx="142.87" cy="231.5" r="2.02"/><circle class="cls-11" cx="43.45" cy="16.25" r="3.85"/><line class="cls-4" x1="65.74" y1="224.66" x2="50.48" y2="224.66"/><line class="cls-4" x1="58.11" y1="232.28" x2="58.11" y2="217.03"/><line class="cls-3" x1="262.56" y1="224.66" x2="247.31" y2="224.66"/><line class="cls-3" x1="254.94" y1="232.28" x2="254.94" y2="217.03"/><line class="cls-1" x1="192.91" y1="103.56" x2="177.65" y2="103.56"/><line class="cls-1" x1="185.28" y1="111.19" x2="185.28" y2="95.94"/><circle class="cls-11" cx="211.92" cy="178.65" r="3.85"/><line class="cls-1" x1="164" y1="251.32" x2="164" y2="266.58"/><line class="cls-1" x1="171.63" y1="258.95" x2="156.37" y2="258.95"/><line class="cls-2" x1="230.01" y1="355.81" x2="230.01" y2="371.07"/><line class="cls-2" x1="237.64" y1="363.44" x2="222.38" y2="363.44"/><line class="cls-3" x1="143.75" y1="343.26" x2="143.75" y2="358.51"/><line class="cls-3" x1="151.38" y1="350.88" x2="136.12" y2="350.88"/><line class="cls-4" x1="208.55" y1="320.17" x2="208.55" y2="335.43"/><line class="cls-4" x1="216.17" y1="327.8" x2="200.92" y2="327.8"/><line class="cls-5" x1="147.8" y1="293.04" x2="147.8" y2="308.29"/><line class="cls-5" x1="155.43" y1="300.66" x2="140.17" y2="300.66"/><polygon class="cls-6" points="264.7 355.41 259.66 352.97 260.28 358.42 264.7 355.41"/><polygon class="cls-7" points="198.35 388.94 193.1 390.87 197.44 394.21 198.35 388.94"/><circle class="cls-7" cx="178.14" cy="308.65" r="3.44"/><circle class="cls-8" cx="257.92" cy="270.17" r="3.44"/><circle class="cls-9" cx="245.27" cy="309.43" r="2.23"/><circle class="cls-10" cx="218.03" cy="244.05" r="2.02"/><circle class="cls-11" cx="160.72" cy="388.83" r="3.85"/><line class="cls-1" x1="185.85" y1="358.29" x2="170.59" y2="358.29"/><line class="cls-1" x1="178.22" y1="365.92" x2="178.22" y2="350.67"/><line class="cls-2" x1="286.69" y1="449.82" x2="271.44" y2="449.82"/><line class="cls-2" x1="279.06" y1="457.45" x2="279.06" y2="442.19"/><line class="cls-3" x1="315.44" y1="363.56" x2="300.19" y2="363.56"/><line class="cls-3" x1="307.82" y1="371.19" x2="307.82" y2="355.93"/><line class="cls-4" x1="338.53" y1="428.36" x2="323.27" y2="428.36"/><line class="cls-4" x1="330.9" y1="435.98" x2="330.9" y2="420.73"/><line class="cls-1" x1="357.97" y1="353.03" x2="342.71" y2="353.03"/><line class="cls-1" x1="350.34" y1="360.66" x2="350.34" y2="345.4"/><polygon class="cls-6" points="306.13 447.66 308.56 442.62 303.12 443.23 306.13 447.66"/><polygon class="cls-7" points="269.76 418.16 267.83 412.91 264.49 417.25 269.76 418.16"/><circle class="cls-7" cx="350.05" cy="397.94" r="3.44"/><circle class="cls-8" cx="216.2" cy="279.08" r="3.44"/><circle class="cls-9" cx="147.76" cy="422.85" r="2.23"/><circle class="cls-11" cx="264.2" cy="380.53" r="3.85"/><line class="cls-1" x1="215.82" y1="452.25" x2="200.56" y2="452.25"/><line class="cls-1" x1="208.19" y1="459.88" x2="208.19" y2="444.62"/><line class="cls-2" x1="295.6" y1="297.14" x2="280.35" y2="297.14"/><line class="cls-2" x1="287.97" y1="304.77" x2="287.97" y2="289.51"/><line class="cls-3" x1="316.25" y1="251.38" x2="301" y2="251.38"/><line class="cls-3" x1="308.63" y1="259" x2="308.63" y2="243.75"/><line class="cls-4" x1="345.06" y1="286.98" x2="329.8" y2="286.98"/><line class="cls-4" x1="337.43" y1="294.61" x2="337.43" y2="279.35"/><line class="cls-1" x1="156.16" y1="406.22" x2="140.9" y2="406.22"/><line class="cls-1" x1="148.53" y1="413.85" x2="148.53" y2="398.59"/><line class="cls-3" x1="253.08" y1="436.05" x2="237.82" y2="436.05"/><line class="cls-3" x1="245.45" y1="443.68" x2="245.45" y2="428.42"/><line class="cls-5" x1="221.89" y1="408.92" x2="206.64" y2="408.92"/><line class="cls-5" x1="214.26" y1="416.54" x2="214.26" y2="401.29"/><polygon class="cls-6" points="313.82 324.13 316.26 319.1 310.81 319.71 313.82 324.13"/><polygon class="cls-7" points="280.29 257.79 278.36 252.53 275.02 256.88 280.29 257.79"/><circle class="cls-7" cx="358.36" cy="243.44" r="3.44"/><circle class="cls-7" cx="134.4" cy="447.56" r="3.44"/><circle class="cls-8" cx="181.78" cy="431.76" r="3.44"/><circle class="cls-9" cx="361.8" cy="313.71" r="2.23"/><circle class="cls-10" cx="237.87" cy="459.5" r="2.02"/><circle class="cls-11" cx="138.45" cy="244.25" r="3.85"/><line class="cls-4" x1="160.74" y1="452.66" x2="145.48" y2="452.66"/><line class="cls-4" x1="153.11" y1="460.28" x2="153.11" y2="445.03"/><line class="cls-3" x1="367.56" y1="473.66" x2="352.31" y2="473.66"/><line class="cls-3" x1="359.94" y1="481.28" x2="359.94" y2="466.03"/><line class="cls-1" x1="287.91" y1="331.56" x2="272.65" y2="331.56"/><line class="cls-1" x1="280.28" y1="339.19" x2="280.28" y2="323.94"/><circle class="cls-11" cx="306.92" cy="406.65" r="3.85"/><line class="cls-1" x1="316" y1="11.32" x2="316" y2="26.58"/><line class="cls-1" x1="323.63" y1="18.95" x2="308.37" y2="18.95"/><line class="cls-2" x1="382.01" y1="115.81" x2="382.01" y2="131.07"/><line class="cls-2" x1="389.64" y1="123.44" x2="374.38" y2="123.44"/><line class="cls-3" x1="295.75" y1="103.26" x2="295.75" y2="118.51"/><line class="cls-3" x1="303.38" y1="110.88" x2="288.12" y2="110.88"/><line class="cls-4" x1="360.55" y1="80.17" x2="360.55" y2="95.43"/><line class="cls-4" x1="368.17" y1="87.8" x2="352.92" y2="87.8"/><line class="cls-5" x1="299.8" y1="53.04" x2="299.8" y2="68.29"/><line class="cls-5" x1="307.43" y1="60.66" x2="292.17" y2="60.66"/><polygon class="cls-6" points="416.7 115.41 411.66 112.97 412.28 118.42 416.7 115.41"/><polygon class="cls-7" points="350.35 148.94 345.1 150.87 349.44 154.21 350.35 148.94"/><circle class="cls-7" cx="330.14" cy="68.65" r="3.44"/><circle class="cls-8" cx="409.92" cy="30.17" r="3.44"/><circle class="cls-9" cx="406.27" cy="67.43" r="2.23"/><circle class="cls-10" cx="370.03" cy="4.05" r="2.02"/><circle class="cls-11" cx="312.72" cy="148.83" r="3.85"/><line class="cls-1" x1="337.85" y1="118.29" x2="322.59" y2="118.29"/><line class="cls-1" x1="330.22" y1="125.92" x2="330.22" y2="110.67"/><line class="cls-2" x1="438.69" y1="209.82" x2="423.44" y2="209.82"/><line class="cls-2" x1="431.06" y1="217.45" x2="431.06" y2="202.19"/><line class="cls-3" x1="467.44" y1="123.56" x2="452.19" y2="123.56"/><line class="cls-3" x1="459.82" y1="131.19" x2="459.82" y2="115.93"/><line class="cls-4" x1="490.53" y1="188.36" x2="475.27" y2="188.36"/><line class="cls-4" x1="482.9" y1="195.98" x2="482.9" y2="180.73"/><line class="cls-1" x1="509.97" y1="113.03" x2="494.71" y2="113.03"/><line class="cls-1" x1="502.34" y1="120.66" x2="502.34" y2="105.4"/><polygon class="cls-6" points="458.13 207.66 460.56 202.62 455.12 203.23 458.13 207.66"/><polygon class="cls-7" points="421.76 178.16 419.83 172.91 416.49 177.25 421.76 178.16"/><circle class="cls-7" cx="502.05" cy="157.94" r="3.44"/><circle class="cls-8" cx="368.2" cy="39.08" r="3.44"/><circle class="cls-9" cx="299.76" cy="182.85" r="2.23"/><circle class="cls-11" cx="416.2" cy="140.53" r="3.85"/><line class="cls-1" x1="367.82" y1="212.25" x2="352.56" y2="212.25"/><line class="cls-1" x1="360.19" y1="219.88" x2="360.19" y2="204.62"/><line class="cls-2" x1="447.6" y1="57.14" x2="432.35" y2="57.14"/><line class="cls-2" x1="439.97" y1="64.77" x2="439.97" y2="49.51"/><line class="cls-3" x1="468.25" y1="11.38" x2="453" y2="11.38"/><line class="cls-3" x1="460.63" y1="19" x2="460.63" y2="3.75"/><line class="cls-4" x1="501.06" y1="27.98" x2="485.8" y2="27.98"/><line class="cls-4" x1="493.43" y1="35.61" x2="493.43" y2="20.35"/><line class="cls-1" x1="294.16" y1="154.22" x2="278.9" y2="154.22"/><line class="cls-1" x1="286.53" y1="161.85" x2="286.53" y2="146.59"/><line class="cls-3" x1="405.08" y1="196.05" x2="389.82" y2="196.05"/><line class="cls-3" x1="397.45" y1="203.68" x2="397.45" y2="188.42"/><line class="cls-5" x1="373.89" y1="168.92" x2="358.64" y2="168.92"/><line class="cls-5" x1="366.26" y1="176.54" x2="366.26" y2="161.29"/><polygon class="cls-6" points="465.82 84.13 468.26 79.1 462.81 79.71 465.82 84.13"/><polygon class="cls-7" points="432.29 17.79 430.36 12.53 427.02 16.88 432.29 17.79"/><circle class="cls-7" cx="510.36" cy="3.44" r="3.44"/><circle class="cls-7" cx="286.4" cy="207.56" r="3.44"/><circle class="cls-8" cx="333.78" cy="191.76" r="3.44"/><circle class="cls-9" cx="513.8" cy="73.71" r="2.23"/><circle class="cls-10" cx="389.87" cy="219.5" r="2.02"/><circle class="cls-11" cx="290.45" cy="4.25" r="3.85"/><line class="cls-4" x1="312.74" y1="212.66" x2="297.48" y2="212.66"/><line class="cls-4" x1="305.11" y1="220.28" x2="305.11" y2="205.03"/><line class="cls-3" x1="509.56" y1="212.66" x2="494.31" y2="212.66"/><line class="cls-3" x1="501.94" y1="220.28" x2="501.94" y2="205.03"/><line class="cls-1" x1="439.91" y1="91.56" x2="424.65" y2="91.56"/><line class="cls-1" x1="432.28" y1="99.19" x2="432.28" y2="83.94"/><circle class="cls-11" cx="458.92" cy="166.65" r="3.85"/><polygon class="cls-6" points="98.7 390.41 93.66 387.97 94.28 393.42 98.7 390.41"/><circle class="cls-8" cx="87.92" cy="277.17" r="3.44"/><circle class="cls-9" cx="84.27" cy="314.43" r="2.23"/><line class="cls-2" x1="130.69" y1="496.82" x2="115.44" y2="496.82"/><line class="cls-2" x1="123.06" y1="504.45" x2="123.06" y2="489.19"/><line class="cls-3" x1="61.44" y1="313.56" x2="46.19" y2="313.56"/><line class="cls-3" x1="53.82" y1="321.19" x2="53.82" y2="305.93"/><line class="cls-4" x1="58.53" y1="430.36" x2="43.27" y2="430.36"/><line class="cls-4" x1="50.9" y1="437.98" x2="50.9" y2="422.73"/><line class="cls-1" x1="77.97" y1="355.03" x2="62.71" y2="355.03"/><line class="cls-1" x1="70.34" y1="362.66" x2="70.34" y2="347.4"/><polygon class="cls-6" points="140.13 482.66 142.56 477.62 137.12 478.23 140.13 482.66"/><polygon class="cls-7" points="113.76 465.16 111.83 459.91 108.49 464.25 113.76 465.16"/><circle class="cls-7" cx="70.05" cy="399.94" r="3.44"/><circle class="cls-11" cx="108.2" cy="425.53" r="3.85"/><line class="cls-2" x1="125.6" y1="304.14" x2="110.35" y2="304.14"/><line class="cls-2" x1="117.97" y1="311.77" x2="117.97" y2="296.51"/><line class="cls-3" x1="36.25" y1="253.38" x2="21" y2="253.38"/><line class="cls-3" x1="28.63" y1="261" x2="28.63" y2="245.75"/><line class="cls-4" x1="69.06" y1="269.98" x2="53.8" y2="269.98"/><line class="cls-4" x1="61.43" y1="277.61" x2="61.43" y2="262.35"/><line class="cls-3" x1="97.08" y1="483.05" x2="81.82" y2="483.05"/><line class="cls-3" x1="89.45" y1="490.68" x2="89.45" y2="475.42"/><polygon class="cls-6" points="33.82 326.13 36.26 321.1 30.81 321.71 33.82 326.13"/><polygon class="cls-7" points="110.29 264.79 108.36 259.53 105.02 263.88 110.29 264.79"/><circle class="cls-7" cx="78.36" cy="245.44" r="3.44"/><circle class="cls-9" cx="81.8" cy="315.71" r="2.23"/><circle class="cls-10" cx="53.87" cy="475.5" r="2.02"/><line class="cls-3" x1="77.56" y1="454.66" x2="62.31" y2="454.66"/><line class="cls-3" x1="69.94" y1="462.28" x2="69.94" y2="447.03"/><line class="cls-1" x1="117.91" y1="338.56" x2="102.65" y2="338.56"/><line class="cls-1" x1="110.28" y1="346.19" x2="110.28" y2="330.94"/><circle class="cls-11" cx="35.92" cy="382.65" r="3.85"/><line class="cls-1" x1="415" y1="251.32" x2="415" y2="266.58"/><line class="cls-1" x1="422.63" y1="258.95" x2="407.37" y2="258.95"/><line class="cls-2" x1="481.01" y1="355.81" x2="481.01" y2="371.07"/><line class="cls-2" x1="488.64" y1="363.44" x2="473.38" y2="363.44"/><line class="cls-3" x1="394.75" y1="343.26" x2="394.75" y2="358.51"/><line class="cls-3" x1="402.38" y1="350.88" x2="387.12" y2="350.88"/><line class="cls-4" x1="459.55" y1="320.17" x2="459.55" y2="335.43"/><line class="cls-4" x1="467.17" y1="327.8" x2="451.92" y2="327.8"/><line class="cls-5" x1="398.8" y1="293.04" x2="398.8" y2="308.29"/><line class="cls-5" x1="406.43" y1="300.66" x2="391.17" y2="300.66"/><polygon class="cls-6" points="515.7 355.41 510.66 352.97 511.28 358.42 515.7 355.41"/><polygon class="cls-7" points="449.35 388.94 444.1 390.87 448.44 394.21 449.35 388.94"/><circle class="cls-7" cx="429.14" cy="308.65" r="3.44"/><circle class="cls-8" cx="508.92" cy="270.17" r="3.44"/><circle class="cls-9" cx="505.27" cy="307.43" r="2.23"/><circle class="cls-10" cx="469.03" cy="244.05" r="2.02"/><circle class="cls-11" cx="411.72" cy="388.83" r="3.85"/><line class="cls-1" x1="436.85" y1="358.29" x2="421.59" y2="358.29"/><line class="cls-1" x1="429.22" y1="365.92" x2="429.22" y2="350.67"/><line class="cls-2" x1="185.69" y1="477.82" x2="170.44" y2="477.82"/><line class="cls-2" x1="178.06" y1="485.45" x2="178.06" y2="470.19"/><line class="cls-3" x1="99.44" y1="52.74" x2="84.19" y2="52.74"/><line class="cls-3" x1="91.82" y1="60.36" x2="91.82" y2="45.11"/><line class="cls-4" x1="236.53" y1="480.36" x2="221.27" y2="480.36"/><line class="cls-4" x1="228.9" y1="487.98" x2="228.9" y2="472.73"/><line class="cls-1" x1="509.97" y1="485.03" x2="494.71" y2="485.03"/><line class="cls-1" x1="502.34" y1="492.66" x2="502.34" y2="477.4"/><polygon class="cls-6" points="204.13 499.66 206.56 494.62 201.12 495.23 204.13 499.66"/><polygon class="cls-7" points="520.76 418.16 518.83 412.91 515.49 417.25 520.76 418.16"/><circle class="cls-7" cx="330.05" cy="479.94" r="3.44"/><circle class="cls-8" cx="467.2" cy="279.08" r="3.44"/><circle class="cls-9" cx="398.76" cy="422.85" r="2.23"/><circle class="cls-11" cx="515.2" cy="380.53" r="3.85"/><line class="cls-1" x1="466.82" y1="452.25" x2="451.56" y2="452.25"/><line class="cls-1" x1="459.19" y1="459.88" x2="459.19" y2="444.62"/><line class="cls-2" x1="547.6" y1="501.14" x2="532.35" y2="501.14"/><line class="cls-2" x1="539.97" y1="508.77" x2="539.97" y2="493.51"/><line class="cls-3" x1="531.25" y1="188.38" x2="516" y2="188.38"/><line class="cls-3" x1="523.63" y1="196" x2="523.63" y2="180.75"/><line class="cls-4" x1="539.06" y1="134.98" x2="523.8" y2="134.98"/><line class="cls-4" x1="531.43" y1="142.61" x2="531.43" y2="127.35"/><line class="cls-1" x1="407.16" y1="406.22" x2="391.9" y2="406.22"/><line class="cls-1" x1="399.53" y1="413.85" x2="399.53" y2="398.59"/><line class="cls-3" x1="504.08" y1="436.05" x2="488.82" y2="436.05"/><line class="cls-3" x1="496.45" y1="443.68" x2="496.45" y2="428.42"/><line class="cls-5" x1="472.89" y1="408.92" x2="457.64" y2="408.92"/><line class="cls-5" x1="465.26" y1="416.54" x2="465.26" y2="401.29"/><polygon class="cls-6" points="486.82 60.31 489.26 55.27 483.81 55.89 486.82 60.31"/><polygon class="cls-7" points="531.29 257.79 529.36 252.53 526.02 256.88 531.29 257.79"/><circle class="cls-7" cx="368.36" cy="279.44" r="3.44"/><circle class="cls-7" cx="385.4" cy="447.56" r="3.44"/><circle class="cls-8" cx="432.78" cy="431.76" r="3.44"/><circle class="cls-9" cx="534.8" cy="49.88" r="2.23"/><circle class="cls-10" cx="488.87" cy="459.5" r="2.02"/><circle class="cls-11" cx="389.45" cy="244.25" r="3.85"/><line class="cls-4" x1="411.74" y1="452.66" x2="396.48" y2="452.66"/><line class="cls-4" x1="404.11" y1="460.28" x2="404.11" y2="445.03"/><line class="cls-3" x1="443.56" y1="489.66" x2="428.31" y2="489.66"/><line class="cls-3" x1="435.94" y1="497.28" x2="435.94" y2="482.03"/><line class="cls-1" x1="538.91" y1="331.56" x2="523.65" y2="331.56"/><line class="cls-1" x1="531.28" y1="339.19" x2="531.28" y2="323.94"/><circle class="cls-11" cx="263.92" cy="475.65" r="3.85"/><line class="cls-1" x1="50" y1="519.32" x2="50" y2="534.58"/><line class="cls-1" x1="57.63" y1="526.95" x2="42.37" y2="526.95"/><line class="cls-2" x1="116.01" y1="623.81" x2="116.01" y2="639.07"/><line class="cls-2" x1="123.64" y1="631.44" x2="108.38" y2="631.44"/><line class="cls-3" x1="29.75" y1="611.26" x2="29.75" y2="626.51"/><line class="cls-3" x1="37.38" y1="618.88" x2="22.12" y2="618.88"/><line class="cls-4" x1="94.55" y1="588.17" x2="94.55" y2="603.43"/><line class="cls-4" x1="102.17" y1="595.8" x2="86.92" y2="595.8"/><line class="cls-5" x1="33.8" y1="561.04" x2="33.8" y2="576.29"/><line class="cls-5" x1="41.43" y1="568.66" x2="26.17" y2="568.66"/><polygon class="cls-6" points="150.7 623.41 145.66 620.97 146.28 626.42 150.7 623.41"/><polygon class="cls-7" points="84.35 656.94 79.1 658.87 83.44 662.21 84.35 656.94"/><circle class="cls-7" cx="64.14" cy="576.65" r="3.44"/><circle class="cls-8" cx="143.92" cy="538.17" r="3.44"/><circle class="cls-9" cx="140.27" cy="575.43" r="2.23"/><circle class="cls-10" cx="104.03" cy="512.05" r="2.02"/><circle class="cls-11" cx="46.72" cy="656.83" r="3.85"/><line class="cls-1" x1="71.85" y1="626.29" x2="56.59" y2="626.29"/><line class="cls-1" x1="64.22" y1="633.92" x2="64.22" y2="618.67"/><line class="cls-2" x1="172.69" y1="717.82" x2="157.44" y2="717.82"/><line class="cls-2" x1="165.06" y1="725.45" x2="165.06" y2="710.19"/><line class="cls-3" x1="201.44" y1="631.56" x2="186.19" y2="631.56"/><line class="cls-3" x1="193.82" y1="639.19" x2="193.82" y2="623.93"/><line class="cls-4" x1="224.53" y1="696.36" x2="209.27" y2="696.36"/><line class="cls-4" x1="216.9" y1="703.98" x2="216.9" y2="688.73"/><line class="cls-1" x1="243.97" y1="621.03" x2="228.71" y2="621.03"/><line class="cls-1" x1="236.34" y1="628.66" x2="236.34" y2="613.4"/><polygon class="cls-6" points="192.13 715.66 194.56 710.62 189.12 711.23 192.13 715.66"/><polygon class="cls-7" points="155.76 686.16 153.83 680.91 150.49 685.25 155.76 686.16"/><circle class="cls-7" cx="236.05" cy="665.94" r="3.44"/><circle class="cls-8" cx="102.2" cy="547.08" r="3.44"/><circle class="cls-9" cx="33.76" cy="690.85" r="2.23"/><circle class="cls-11" cx="150.2" cy="648.53" r="3.85"/><line class="cls-1" x1="101.82" y1="720.25" x2="86.56" y2="720.25"/><line class="cls-1" x1="94.19" y1="727.88" x2="94.19" y2="712.62"/><line class="cls-2" x1="181.6" y1="565.14" x2="166.35" y2="565.14"/><line class="cls-2" x1="173.97" y1="572.77" x2="173.97" y2="557.51"/><line class="cls-3" x1="202.25" y1="519.38" x2="187" y2="519.38"/><line class="cls-3" x1="194.63" y1="527" x2="194.63" y2="511.75"/><line class="cls-4" x1="235.06" y1="535.98" x2="219.8" y2="535.98"/><line class="cls-4" x1="227.43" y1="543.61" x2="227.43" y2="528.35"/><line class="cls-1" x1="42.16" y1="674.22" x2="26.9" y2="674.22"/><line class="cls-1" x1="34.53" y1="681.85" x2="34.53" y2="666.59"/><line class="cls-3" x1="139.08" y1="704.05" x2="123.82" y2="704.05"/><line class="cls-3" x1="131.45" y1="711.68" x2="131.45" y2="696.42"/><line class="cls-5" x1="107.89" y1="676.92" x2="92.64" y2="676.92"/><line class="cls-5" x1="100.26" y1="684.54" x2="100.26" y2="669.29"/><polygon class="cls-6" points="199.82 592.13 202.26 587.1 196.81 587.71 199.82 592.13"/><polygon class="cls-7" points="166.29 525.79 164.36 520.53 161.02 524.88 166.29 525.79"/><circle class="cls-7" cx="244.36" cy="511.44" r="3.44"/><circle class="cls-7" cx="20.4" cy="715.56" r="3.44"/><circle class="cls-8" cx="67.78" cy="699.76" r="3.44"/><circle class="cls-9" cx="247.8" cy="581.71" r="2.23"/><circle class="cls-10" cx="123.87" cy="727.5" r="2.02"/><circle class="cls-11" cx="24.45" cy="512.25" r="3.85"/><line class="cls-4" x1="46.74" y1="720.66" x2="31.48" y2="720.66"/><line class="cls-4" x1="39.11" y1="728.28" x2="39.11" y2="713.03"/><line class="cls-3" x1="243.56" y1="720.66" x2="228.31" y2="720.66"/><line class="cls-3" x1="235.94" y1="728.28" x2="235.94" y2="713.03"/><line class="cls-1" x1="173.91" y1="599.56" x2="158.65" y2="599.56"/><line class="cls-1" x1="166.28" y1="607.19" x2="166.28" y2="591.94"/><circle class="cls-11" cx="192.92" cy="674.65" r="3.85"/><line class="cls-1" x1="145" y1="747.32" x2="145" y2="762.58"/><line class="cls-1" x1="152.63" y1="754.95" x2="137.37" y2="754.95"/><line class="cls-2" x1="211.01" y1="851.81" x2="211.01" y2="867.07"/><line class="cls-2" x1="218.64" y1="859.44" x2="203.38" y2="859.44"/><line class="cls-3" x1="124.75" y1="839.26" x2="124.75" y2="854.51"/><line class="cls-3" x1="132.38" y1="846.88" x2="117.12" y2="846.88"/><line class="cls-4" x1="189.55" y1="816.17" x2="189.55" y2="831.43"/><line class="cls-4" x1="197.17" y1="823.8" x2="181.92" y2="823.8"/><line class="cls-5" x1="128.8" y1="789.04" x2="128.8" y2="804.29"/><line class="cls-5" x1="136.43" y1="796.66" x2="121.17" y2="796.66"/><polygon class="cls-6" points="245.7 851.41 240.66 848.97 241.28 854.42 245.7 851.41"/><polygon class="cls-7" points="179.35 884.94 174.1 886.87 178.44 890.21 179.35 884.94"/><circle class="cls-7" cx="159.14" cy="804.65" r="3.44"/><circle class="cls-8" cx="238.92" cy="766.17" r="3.44"/><circle class="cls-9" cx="226.27" cy="805.43" r="2.23"/><circle class="cls-10" cx="199.03" cy="740.05" r="2.02"/><circle class="cls-11" cx="141.72" cy="884.83" r="3.85"/><line class="cls-1" x1="166.85" y1="854.29" x2="151.59" y2="854.29"/><line class="cls-1" x1="159.22" y1="861.92" x2="159.22" y2="846.67"/><line class="cls-2" x1="267.69" y1="945.82" x2="252.44" y2="945.82"/><line class="cls-2" x1="260.06" y1="953.45" x2="260.06" y2="938.19"/><line class="cls-3" x1="296.44" y1="859.56" x2="281.19" y2="859.56"/><line class="cls-3" x1="288.82" y1="867.19" x2="288.82" y2="851.93"/><line class="cls-4" x1="319.53" y1="924.36" x2="304.27" y2="924.36"/><line class="cls-4" x1="311.9" y1="931.98" x2="311.9" y2="916.73"/><line class="cls-1" x1="338.97" y1="849.03" x2="323.71" y2="849.03"/><line class="cls-1" x1="331.34" y1="856.66" x2="331.34" y2="841.4"/><polygon class="cls-6" points="287.13 943.66 289.56 938.62 284.12 939.23 287.13 943.66"/><polygon class="cls-7" points="250.76 914.16 248.83 908.91 245.49 913.25 250.76 914.16"/><circle class="cls-7" cx="331.05" cy="893.94" r="3.44"/><circle class="cls-8" cx="197.2" cy="775.08" r="3.44"/><circle class="cls-9" cx="128.76" cy="918.85" r="2.23"/><circle class="cls-11" cx="245.2" cy="876.53" r="3.85"/><line class="cls-1" x1="196.82" y1="948.25" x2="181.56" y2="948.25"/><line class="cls-1" x1="189.19" y1="955.88" x2="189.19" y2="940.62"/><line class="cls-2" x1="276.6" y1="793.14" x2="261.35" y2="793.14"/><line class="cls-2" x1="268.97" y1="800.77" x2="268.97" y2="785.51"/><line class="cls-3" x1="297.25" y1="747.38" x2="282" y2="747.38"/><line class="cls-3" x1="289.63" y1="755" x2="289.63" y2="739.75"/><line class="cls-4" x1="326.06" y1="782.98" x2="310.8" y2="782.98"/><line class="cls-4" x1="318.43" y1="790.61" x2="318.43" y2="775.35"/><line class="cls-1" x1="137.16" y1="902.22" x2="121.9" y2="902.22"/><line class="cls-1" x1="129.53" y1="909.85" x2="129.53" y2="894.59"/><line class="cls-3" x1="234.08" y1="932.05" x2="218.82" y2="932.05"/><line class="cls-3" x1="226.45" y1="939.68" x2="226.45" y2="924.42"/><line class="cls-5" x1="202.89" y1="904.92" x2="187.64" y2="904.92"/><line class="cls-5" x1="195.26" y1="912.54" x2="195.26" y2="897.29"/><polygon class="cls-6" points="294.82 820.13 297.26 815.1 291.81 815.71 294.82 820.13"/><polygon class="cls-7" points="261.29 753.79 259.36 748.53 256.02 752.88 261.29 753.79"/><circle class="cls-7" cx="339.36" cy="739.44" r="3.44"/><circle class="cls-7" cx="115.4" cy="943.56" r="3.44"/><circle class="cls-8" cx="162.78" cy="927.76" r="3.44"/><circle class="cls-9" cx="342.8" cy="809.71" r="2.23"/><circle class="cls-10" cx="218.87" cy="955.5" r="2.02"/><circle class="cls-11" cx="119.45" cy="740.25" r="3.85"/><line class="cls-4" x1="141.74" y1="948.66" x2="126.48" y2="948.66"/><line class="cls-4" x1="134.11" y1="956.28" x2="134.11" y2="941.03"/><line class="cls-3" x1="348.56" y1="969.66" x2="333.31" y2="969.66"/><line class="cls-3" x1="340.94" y1="977.28" x2="340.94" y2="962.03"/><line class="cls-1" x1="268.91" y1="827.56" x2="253.65" y2="827.56"/><line class="cls-1" x1="261.28" y1="835.19" x2="261.28" y2="819.94"/><circle class="cls-11" cx="287.92" cy="902.65" r="3.85"/><line class="cls-1" x1="297" y1="507.32" x2="297" y2="522.58"/><line class="cls-1" x1="304.63" y1="514.95" x2="289.37" y2="514.95"/><line class="cls-2" x1="363.01" y1="611.81" x2="363.01" y2="627.07"/><line class="cls-2" x1="370.64" y1="619.44" x2="355.38" y2="619.44"/><line class="cls-3" x1="276.75" y1="599.26" x2="276.75" y2="614.51"/><line class="cls-3" x1="284.38" y1="606.88" x2="269.12" y2="606.88"/><line class="cls-4" x1="341.55" y1="576.17" x2="341.55" y2="591.43"/><line class="cls-4" x1="349.17" y1="583.8" x2="333.92" y2="583.8"/><line class="cls-5" x1="280.8" y1="549.04" x2="280.8" y2="564.29"/><line class="cls-5" x1="288.43" y1="556.66" x2="273.17" y2="556.66"/><polygon class="cls-6" points="397.7 611.41 392.66 608.97 393.28 614.42 397.7 611.41"/><polygon class="cls-7" points="331.35 644.94 326.1 646.87 330.44 650.21 331.35 644.94"/><circle class="cls-7" cx="311.14" cy="564.65" r="3.44"/><circle class="cls-8" cx="390.92" cy="526.17" r="3.44"/><circle class="cls-9" cx="387.27" cy="563.43" r="2.23"/><circle class="cls-10" cx="351.03" cy="500.05" r="2.02"/><circle class="cls-11" cx="293.72" cy="644.83" r="3.85"/><line class="cls-1" x1="318.85" y1="614.29" x2="303.59" y2="614.29"/><line class="cls-1" x1="311.22" y1="621.92" x2="311.22" y2="606.67"/><line class="cls-2" x1="419.69" y1="705.82" x2="404.44" y2="705.82"/><line class="cls-2" x1="412.06" y1="713.45" x2="412.06" y2="698.19"/><line class="cls-3" x1="448.44" y1="619.56" x2="433.19" y2="619.56"/><line class="cls-3" x1="440.82" y1="627.19" x2="440.82" y2="611.93"/><line class="cls-4" x1="471.53" y1="684.36" x2="456.27" y2="684.36"/><line class="cls-4" x1="463.9" y1="691.98" x2="463.9" y2="676.73"/><line class="cls-1" x1="490.97" y1="609.03" x2="475.71" y2="609.03"/><line class="cls-1" x1="483.34" y1="616.66" x2="483.34" y2="601.4"/><polygon class="cls-6" points="439.13 703.66 441.56 698.62 436.12 699.23 439.13 703.66"/><polygon class="cls-7" points="402.76 674.16 400.83 668.91 397.49 673.25 402.76 674.16"/><circle class="cls-7" cx="483.05" cy="653.94" r="3.44"/><circle class="cls-8" cx="349.2" cy="535.08" r="3.44"/><circle class="cls-9" cx="280.76" cy="678.85" r="2.23"/><circle class="cls-11" cx="397.2" cy="636.53" r="3.85"/><line class="cls-1" x1="348.82" y1="708.25" x2="333.56" y2="708.25"/><line class="cls-1" x1="341.19" y1="715.88" x2="341.19" y2="700.62"/><line class="cls-2" x1="428.6" y1="553.14" x2="413.35" y2="553.14"/><line class="cls-2" x1="420.97" y1="560.77" x2="420.97" y2="545.51"/><line class="cls-3" x1="449.25" y1="507.38" x2="434" y2="507.38"/><line class="cls-3" x1="441.63" y1="515" x2="441.63" y2="499.75"/><line class="cls-4" x1="482.06" y1="523.98" x2="466.8" y2="523.98"/><line class="cls-4" x1="474.43" y1="531.61" x2="474.43" y2="516.35"/><line class="cls-1" x1="275.16" y1="650.22" x2="259.9" y2="650.22"/><line class="cls-1" x1="267.53" y1="657.85" x2="267.53" y2="642.59"/><line class="cls-3" x1="386.08" y1="692.05" x2="370.82" y2="692.05"/><line class="cls-3" x1="378.45" y1="699.68" x2="378.45" y2="684.42"/><line class="cls-5" x1="354.89" y1="664.92" x2="339.64" y2="664.92"/><line class="cls-5" x1="347.26" y1="672.54" x2="347.26" y2="657.29"/><polygon class="cls-6" points="446.82 580.13 449.26 575.1 443.81 575.71 446.82 580.13"/><polygon class="cls-7" points="413.29 513.79 411.36 508.53 408.02 512.88 413.29 513.79"/><circle class="cls-7" cx="491.36" cy="499.44" r="3.44"/><circle class="cls-7" cx="267.4" cy="703.56" r="3.44"/><circle class="cls-8" cx="314.78" cy="687.76" r="3.44"/><circle class="cls-9" cx="494.8" cy="569.71" r="2.23"/><circle class="cls-10" cx="370.87" cy="715.5" r="2.02"/><circle class="cls-11" cx="271.45" cy="500.25" r="3.85"/><line class="cls-4" x1="293.74" y1="708.66" x2="278.48" y2="708.66"/><line class="cls-4" x1="286.11" y1="716.28" x2="286.11" y2="701.03"/><line class="cls-3" x1="490.56" y1="708.66" x2="475.31" y2="708.66"/><line class="cls-3" x1="482.94" y1="716.28" x2="482.94" y2="701.03"/><line class="cls-1" x1="420.91" y1="587.56" x2="405.65" y2="587.56"/><line class="cls-1" x1="413.28" y1="595.19" x2="413.28" y2="579.94"/><circle class="cls-11" cx="439.92" cy="662.65" r="3.85"/><polygon class="cls-6" points="79.7 886.41 74.66 883.97 75.28 889.42 79.7 886.41"/><circle class="cls-8" cx="68.92" cy="773.17" r="3.44"/><circle class="cls-9" cx="65.27" cy="810.43" r="2.23"/><line class="cls-2" x1="111.69" y1="992.82" x2="96.44" y2="992.82"/><line class="cls-2" x1="104.06" y1="1000.45" x2="104.06" y2="985.19"/><line class="cls-3" x1="42.44" y1="809.56" x2="27.19" y2="809.56"/><line class="cls-3" x1="34.82" y1="817.19" x2="34.82" y2="801.93"/><line class="cls-4" x1="39.53" y1="926.36" x2="24.27" y2="926.36"/><line class="cls-4" x1="31.9" y1="933.98" x2="31.9" y2="918.73"/><line class="cls-1" x1="58.97" y1="851.03" x2="43.71" y2="851.03"/><line class="cls-1" x1="51.34" y1="858.66" x2="51.34" y2="843.4"/><polygon class="cls-6" points="121.13 978.66 123.56 973.62 118.12 974.23 121.13 978.66"/><polygon class="cls-7" points="94.76 961.16 92.83 955.91 89.49 960.25 94.76 961.16"/><circle class="cls-7" cx="51.05" cy="895.94" r="3.44"/><circle class="cls-11" cx="89.2" cy="921.53" r="3.85"/><line class="cls-2" x1="106.6" y1="800.14" x2="91.35" y2="800.14"/><line class="cls-2" x1="98.97" y1="807.77" x2="98.97" y2="792.51"/><line class="cls-3" x1="17.25" y1="749.38" x2="2" y2="749.38"/><line class="cls-3" x1="9.63" y1="757" x2="9.63" y2="741.75"/><line class="cls-4" x1="50.06" y1="765.98" x2="34.8" y2="765.98"/><line class="cls-4" x1="42.43" y1="773.61" x2="42.43" y2="758.35"/><line class="cls-3" x1="78.08" y1="979.05" x2="62.82" y2="979.05"/><line class="cls-3" x1="70.45" y1="986.68" x2="70.45" y2="971.42"/><polygon class="cls-6" points="14.82 822.13 17.26 817.1 11.81 817.71 14.82 822.13"/><polygon class="cls-7" points="91.29 760.79 89.36 755.53 86.02 759.88 91.29 760.79"/><circle class="cls-7" cx="59.36" cy="741.44" r="3.44"/><circle class="cls-9" cx="62.8" cy="811.71" r="2.23"/><circle class="cls-10" cx="34.87" cy="971.5" r="2.02"/><line class="cls-3" x1="58.56" y1="950.66" x2="43.31" y2="950.66"/><line class="cls-3" x1="50.94" y1="958.28" x2="50.94" y2="943.03"/><line class="cls-1" x1="98.91" y1="834.56" x2="83.65" y2="834.56"/><line class="cls-1" x1="91.28" y1="842.19" x2="91.28" y2="826.94"/><circle class="cls-11" cx="16.92" cy="878.65" r="3.85"/><line class="cls-1" x1="396" y1="747.32" x2="396" y2="762.58"/><line class="cls-1" x1="403.63" y1="754.95" x2="388.37" y2="754.95"/><line class="cls-2" x1="462.01" y1="851.81" x2="462.01" y2="867.07"/><line class="cls-2" x1="469.64" y1="859.44" x2="454.38" y2="859.44"/><line class="cls-3" x1="375.75" y1="839.26" x2="375.75" y2="854.51"/><line class="cls-3" x1="383.38" y1="846.88" x2="368.12" y2="846.88"/><line class="cls-4" x1="440.55" y1="816.17" x2="440.55" y2="831.43"/><line class="cls-4" x1="448.17" y1="823.8" x2="432.92" y2="823.8"/><line class="cls-5" x1="379.8" y1="789.04" x2="379.8" y2="804.29"/><line class="cls-5" x1="387.43" y1="796.66" x2="372.17" y2="796.66"/><polygon class="cls-6" points="496.7 851.41 491.66 848.97 492.28 854.42 496.7 851.41"/><polygon class="cls-7" points="430.35 884.94 425.1 886.87 429.44 890.21 430.35 884.94"/><circle class="cls-7" cx="410.14" cy="804.65" r="3.44"/><circle class="cls-8" cx="489.92" cy="766.17" r="3.44"/><circle class="cls-9" cx="486.27" cy="803.43" r="2.23"/><circle class="cls-10" cx="450.03" cy="740.05" r="2.02"/><circle class="cls-11" cx="392.72" cy="884.83" r="3.85"/><line class="cls-1" x1="417.85" y1="854.29" x2="402.59" y2="854.29"/><line class="cls-1" x1="410.22" y1="861.92" x2="410.22" y2="846.67"/><line class="cls-2" x1="166.69" y1="973.82" x2="151.44" y2="973.82"/><line class="cls-2" x1="159.06" y1="981.45" x2="159.06" y2="966.19"/><line class="cls-3" x1="80.44" y1="548.74" x2="65.19" y2="548.74"/><line class="cls-3" x1="72.82" y1="556.36" x2="72.82" y2="541.11"/><line class="cls-4" x1="217.53" y1="976.36" x2="202.27" y2="976.36"/><line class="cls-4" x1="209.9" y1="983.98" x2="209.9" y2="968.73"/><line class="cls-1" x1="490.97" y1="981.03" x2="475.71" y2="981.03"/><line class="cls-1" x1="483.34" y1="988.66" x2="483.34" y2="973.4"/><polygon class="cls-6" points="185.13 995.66 187.56 990.62 182.12 991.23 185.13 995.66"/><polygon class="cls-7" points="501.76 914.16 499.83 908.91 496.49 913.25 501.76 914.16"/><circle class="cls-7" cx="311.05" cy="975.94" r="3.44"/><circle class="cls-8" cx="448.2" cy="775.08" r="3.44"/><circle class="cls-9" cx="379.76" cy="918.85" r="2.23"/><circle class="cls-11" cx="496.2" cy="876.53" r="3.85"/><line class="cls-1" x1="447.82" y1="948.25" x2="432.56" y2="948.25"/><line class="cls-1" x1="440.19" y1="955.88" x2="440.19" y2="940.62"/><line class="cls-2" x1="527.6" y1="793.14" x2="512.35" y2="793.14"/><line class="cls-2" x1="519.97" y1="800.77" x2="519.97" y2="785.51"/><line class="cls-3" x1="512.25" y1="684.38" x2="497" y2="684.38"/><line class="cls-3" x1="504.63" y1="692" x2="504.63" y2="676.75"/><line class="cls-4" x1="520.06" y1="630.98" x2="504.8" y2="630.98"/><line class="cls-4" x1="512.43" y1="638.61" x2="512.43" y2="623.35"/><line class="cls-1" x1="388.16" y1="902.22" x2="372.9" y2="902.22"/><line class="cls-1" x1="380.53" y1="909.85" x2="380.53" y2="894.59"/><line class="cls-3" x1="485.08" y1="932.05" x2="469.82" y2="932.05"/><line class="cls-3" x1="477.45" y1="939.68" x2="477.45" y2="924.42"/><line class="cls-5" x1="453.89" y1="904.92" x2="438.64" y2="904.92"/><line class="cls-5" x1="446.26" y1="912.54" x2="446.26" y2="897.29"/><polygon class="cls-6" points="467.82 556.31 470.26 551.27 464.81 551.89 467.82 556.31"/><polygon class="cls-7" points="512.29 753.79 510.36 748.53 507.02 752.88 512.29 753.79"/><circle class="cls-7" cx="349.36" cy="775.44" r="3.44"/><circle class="cls-7" cx="366.4" cy="943.56" r="3.44"/><circle class="cls-8" cx="413.78" cy="927.76" r="3.44"/><circle class="cls-9" cx="515.8" cy="545.88" r="2.23"/><circle class="cls-10" cx="469.87" cy="955.5" r="2.02"/><circle class="cls-11" cx="370.45" cy="740.25" r="3.85"/><line class="cls-4" x1="392.74" y1="948.66" x2="377.48" y2="948.66"/><line class="cls-4" x1="385.11" y1="956.28" x2="385.11" y2="941.03"/><line class="cls-3" x1="424.56" y1="985.66" x2="409.31" y2="985.66"/><line class="cls-3" x1="416.94" y1="993.28" x2="416.94" y2="978.03"/><line class="cls-1" x1="519.91" y1="827.56" x2="504.65" y2="827.56"/><line class="cls-1" x1="512.28" y1="835.19" x2="512.28" y2="819.94"/><circle class="cls-11" cx="244.92" cy="971.65" r="3.85"/><line class="cls-1" x1="595" y1="50.32" x2="595" y2="65.58"/><line class="cls-1" x1="602.63" y1="57.95" x2="587.37" y2="57.95"/><line class="cls-2" x1="661.01" y1="154.81" x2="661.01" y2="170.07"/><line class="cls-2" x1="668.64" y1="162.44" x2="653.38" y2="162.44"/><line class="cls-3" x1="574.75" y1="142.26" x2="574.75" y2="157.51"/><line class="cls-3" x1="582.38" y1="149.88" x2="567.12" y2="149.88"/><line class="cls-4" x1="639.55" y1="119.17" x2="639.55" y2="134.43"/><line class="cls-4" x1="647.17" y1="126.8" x2="631.92" y2="126.8"/><line class="cls-5" x1="546.8" y1="93.04" x2="546.8" y2="108.29"/><line class="cls-5" x1="554.43" y1="100.66" x2="539.17" y2="100.66"/><polygon class="cls-6" points="695.7 154.41 690.66 151.97 691.28 157.42 695.7 154.41"/><polygon class="cls-7" points="629.35 187.94 624.1 189.87 628.44 193.21 629.35 187.94"/><circle class="cls-7" cx="609.14" cy="107.65" r="3.44"/><circle class="cls-8" cx="688.92" cy="69.17" r="3.44"/><circle class="cls-9" cx="685.27" cy="106.43" r="2.23"/><circle class="cls-10" cx="649.03" cy="43.05" r="2.02"/><circle class="cls-11" cx="591.72" cy="187.83" r="3.85"/><line class="cls-1" x1="616.85" y1="157.29" x2="601.59" y2="157.29"/><line class="cls-1" x1="609.22" y1="164.92" x2="609.22" y2="149.67"/><line class="cls-2" x1="717.69" y1="248.82" x2="702.44" y2="248.82"/><line class="cls-2" x1="710.06" y1="256.45" x2="710.06" y2="241.19"/><line class="cls-3" x1="746.44" y1="162.56" x2="731.19" y2="162.56"/><line class="cls-3" x1="738.82" y1="170.19" x2="738.82" y2="154.93"/><line class="cls-4" x1="769.53" y1="227.36" x2="754.27" y2="227.36"/><line class="cls-4" x1="761.9" y1="234.98" x2="761.9" y2="219.73"/><line class="cls-1" x1="788.97" y1="152.03" x2="773.71" y2="152.03"/><line class="cls-1" x1="781.34" y1="159.66" x2="781.34" y2="144.4"/><polygon class="cls-6" points="737.13 246.66 739.56 241.62 734.12 242.23 737.13 246.66"/><polygon class="cls-7" points="700.76 217.16 698.83 211.91 695.49 216.25 700.76 217.16"/><circle class="cls-7" cx="781.05" cy="196.94" r="3.44"/><circle class="cls-8" cx="647.2" cy="78.08" r="3.44"/><circle class="cls-9" cx="578.76" cy="221.85" r="2.23"/><circle class="cls-11" cx="695.2" cy="179.53" r="3.85"/><line class="cls-1" x1="646.82" y1="251.25" x2="631.56" y2="251.25"/><line class="cls-1" x1="639.19" y1="258.88" x2="639.19" y2="243.62"/><line class="cls-2" x1="726.6" y1="96.14" x2="711.35" y2="96.14"/><line class="cls-2" x1="718.97" y1="103.77" x2="718.97" y2="88.51"/><line class="cls-3" x1="747.25" y1="50.38" x2="732" y2="50.38"/><line class="cls-3" x1="739.63" y1="58" x2="739.63" y2="42.75"/><line class="cls-4" x1="780.06" y1="66.98" x2="764.8" y2="66.98"/><line class="cls-4" x1="772.43" y1="74.61" x2="772.43" y2="59.35"/><line class="cls-1" x1="587.16" y1="205.22" x2="571.9" y2="205.22"/><line class="cls-1" x1="579.53" y1="212.85" x2="579.53" y2="197.59"/><line class="cls-3" x1="684.08" y1="235.05" x2="668.82" y2="235.05"/><line class="cls-3" x1="676.45" y1="242.68" x2="676.45" y2="227.42"/><line class="cls-5" x1="652.89" y1="207.92" x2="637.64" y2="207.92"/><line class="cls-5" x1="645.26" y1="215.54" x2="645.26" y2="200.29"/><polygon class="cls-6" points="744.82 123.13 747.26 118.1 741.81 118.71 744.82 123.13"/><polygon class="cls-7" points="711.29 56.79 709.36 51.53 706.02 55.88 711.29 56.79"/><circle class="cls-7" cx="789.36" cy="42.44" r="3.44"/><circle class="cls-7" cx="565.4" cy="246.56" r="3.44"/><circle class="cls-8" cx="612.78" cy="230.76" r="3.44"/><circle class="cls-9" cx="792.8" cy="112.71" r="2.23"/><circle class="cls-10" cx="668.87" cy="258.5" r="2.02"/><circle class="cls-11" cx="569.45" cy="43.25" r="3.85"/><line class="cls-4" x1="591.74" y1="251.66" x2="576.48" y2="251.66"/><line class="cls-4" x1="584.11" y1="259.28" x2="584.11" y2="244.03"/><line class="cls-3" x1="788.56" y1="251.66" x2="773.31" y2="251.66"/><line class="cls-3" x1="780.94" y1="259.28" x2="780.94" y2="244.03"/><line class="cls-1" x1="718.91" y1="130.56" x2="703.65" y2="130.56"/><line class="cls-1" x1="711.28" y1="138.19" x2="711.28" y2="122.94"/><circle class="cls-11" cx="737.92" cy="205.65" r="3.85"/><line class="cls-1" x1="690" y1="278.32" x2="690" y2="293.58"/><line class="cls-1" x1="697.63" y1="285.95" x2="682.37" y2="285.95"/><line class="cls-2" x1="756.01" y1="382.81" x2="756.01" y2="398.07"/><line class="cls-2" x1="763.64" y1="390.44" x2="748.38" y2="390.44"/><line class="cls-3" x1="669.75" y1="370.26" x2="669.75" y2="385.51"/><line class="cls-3" x1="677.38" y1="377.88" x2="662.12" y2="377.88"/><line class="cls-4" x1="734.55" y1="347.17" x2="734.55" y2="362.43"/><line class="cls-4" x1="742.17" y1="354.8" x2="726.92" y2="354.8"/><line class="cls-5" x1="673.8" y1="320.04" x2="673.8" y2="335.29"/><line class="cls-5" x1="681.43" y1="327.66" x2="666.17" y2="327.66"/><polygon class="cls-6" points="790.7 382.41 785.66 379.97 786.28 385.42 790.7 382.41"/><polygon class="cls-7" points="724.35 415.94 719.1 417.87 723.44 421.21 724.35 415.94"/><circle class="cls-7" cx="704.14" cy="335.65" r="3.44"/><circle class="cls-8" cx="783.92" cy="297.17" r="3.44"/><circle class="cls-9" cx="771.27" cy="336.43" r="2.23"/><circle class="cls-10" cx="744.03" cy="271.05" r="2.02"/><circle class="cls-11" cx="686.72" cy="415.83" r="3.85"/><line class="cls-1" x1="711.85" y1="385.29" x2="696.59" y2="385.29"/><line class="cls-1" x1="704.22" y1="392.92" x2="704.22" y2="377.67"/><line class="cls-2" x1="812.69" y1="476.82" x2="797.44" y2="476.82"/><line class="cls-2" x1="805.06" y1="484.45" x2="805.06" y2="469.19"/><line class="cls-3" x1="841.44" y1="390.56" x2="826.19" y2="390.56"/><line class="cls-3" x1="833.82" y1="398.19" x2="833.82" y2="382.93"/><line class="cls-4" x1="864.53" y1="455.36" x2="849.27" y2="455.36"/><line class="cls-4" x1="856.9" y1="462.98" x2="856.9" y2="447.73"/><line class="cls-1" x1="883.97" y1="380.03" x2="868.71" y2="380.03"/><line class="cls-1" x1="876.34" y1="387.66" x2="876.34" y2="372.4"/><polygon class="cls-6" points="832.13 474.66 834.56 469.62 829.12 470.23 832.13 474.66"/><polygon class="cls-7" points="795.76 445.16 793.83 439.91 790.49 444.25 795.76 445.16"/><circle class="cls-7" cx="876.05" cy="424.94" r="3.44"/><circle class="cls-8" cx="742.2" cy="306.08" r="3.44"/><circle class="cls-9" cx="673.76" cy="449.85" r="2.23"/><circle class="cls-11" cx="790.2" cy="407.53" r="3.85"/><line class="cls-1" x1="741.82" y1="479.25" x2="726.56" y2="479.25"/><line class="cls-1" x1="734.19" y1="486.88" x2="734.19" y2="471.62"/><line class="cls-2" x1="821.6" y1="324.14" x2="806.35" y2="324.14"/><line class="cls-2" x1="813.97" y1="331.77" x2="813.97" y2="316.51"/><line class="cls-3" x1="842.25" y1="278.38" x2="827" y2="278.38"/><line class="cls-3" x1="834.63" y1="286" x2="834.63" y2="270.75"/><line class="cls-4" x1="871.06" y1="313.98" x2="855.8" y2="313.98"/><line class="cls-4" x1="863.43" y1="321.61" x2="863.43" y2="306.35"/><line class="cls-1" x1="682.16" y1="433.22" x2="666.9" y2="433.22"/><line class="cls-1" x1="674.53" y1="440.85" x2="674.53" y2="425.59"/><line class="cls-3" x1="779.08" y1="463.05" x2="763.82" y2="463.05"/><line class="cls-3" x1="771.45" y1="470.68" x2="771.45" y2="455.42"/><line class="cls-5" x1="747.89" y1="435.92" x2="732.64" y2="435.92"/><line class="cls-5" x1="740.26" y1="443.54" x2="740.26" y2="428.29"/><polygon class="cls-6" points="839.82 351.13 842.26 346.1 836.81 346.71 839.82 351.13"/><polygon class="cls-7" points="806.29 284.79 804.36 279.53 801.02 283.88 806.29 284.79"/><circle class="cls-7" cx="884.36" cy="270.44" r="3.44"/><circle class="cls-7" cx="660.4" cy="474.56" r="3.44"/><circle class="cls-8" cx="707.78" cy="458.76" r="3.44"/><circle class="cls-9" cx="887.8" cy="340.71" r="2.23"/><circle class="cls-10" cx="763.87" cy="486.5" r="2.02"/><circle class="cls-11" cx="664.45" cy="271.25" r="3.85"/><line class="cls-4" x1="686.74" y1="479.66" x2="671.48" y2="479.66"/><line class="cls-4" x1="679.11" y1="487.28" x2="679.11" y2="472.03"/><line class="cls-3" x1="893.56" y1="500.66" x2="878.31" y2="500.66"/><line class="cls-3" x1="885.94" y1="508.28" x2="885.94" y2="493.03"/><line class="cls-1" x1="813.91" y1="358.56" x2="798.65" y2="358.56"/><line class="cls-1" x1="806.28" y1="366.19" x2="806.28" y2="350.94"/><circle class="cls-11" cx="832.92" cy="433.65" r="3.85"/><line class="cls-1" x1="842" y1="38.32" x2="842" y2="53.58"/><line class="cls-1" x1="849.63" y1="45.95" x2="834.37" y2="45.95"/><line class="cls-2" x1="908.01" y1="142.81" x2="908.01" y2="158.07"/><line class="cls-2" x1="915.64" y1="150.44" x2="900.38" y2="150.44"/><line class="cls-3" x1="821.75" y1="130.26" x2="821.75" y2="145.51"/><line class="cls-3" x1="829.38" y1="137.88" x2="814.12" y2="137.88"/><line class="cls-4" x1="886.55" y1="107.17" x2="886.55" y2="122.43"/><line class="cls-4" x1="894.17" y1="114.8" x2="878.92" y2="114.8"/><line class="cls-5" x1="825.8" y1="80.04" x2="825.8" y2="95.29"/><line class="cls-5" x1="833.43" y1="87.66" x2="818.17" y2="87.66"/><polygon class="cls-6" points="942.7 142.41 937.66 139.97 938.28 145.42 942.7 142.41"/><polygon class="cls-7" points="876.35 175.94 871.1 177.87 875.44 181.21 876.35 175.94"/><circle class="cls-7" cx="856.14" cy="95.65" r="3.44"/><circle class="cls-8" cx="935.92" cy="57.17" r="3.44"/><circle class="cls-9" cx="932.27" cy="94.43" r="2.23"/><circle class="cls-10" cx="896.03" cy="31.05" r="2.02"/><circle class="cls-11" cx="838.72" cy="175.83" r="3.85"/><line class="cls-1" x1="863.85" y1="145.29" x2="848.59" y2="145.29"/><line class="cls-1" x1="856.22" y1="152.92" x2="856.22" y2="137.67"/><line class="cls-2" x1="964.69" y1="236.82" x2="949.44" y2="236.82"/><line class="cls-2" x1="957.06" y1="244.45" x2="957.06" y2="229.19"/><line class="cls-3" x1="993.44" y1="150.56" x2="978.19" y2="150.56"/><line class="cls-3" x1="985.82" y1="158.19" x2="985.82" y2="142.93"/><line class="cls-4" x1="1016.53" y1="215.36" x2="1001.27" y2="215.36"/><line class="cls-4" x1="1008.9" y1="222.98" x2="1008.9" y2="207.73"/><line class="cls-1" x1="1035.97" y1="140.03" x2="1020.71" y2="140.03"/><line class="cls-1" x1="1028.34" y1="147.66" x2="1028.34" y2="132.4"/><polygon class="cls-6" points="984.13 234.66 986.56 229.62 981.12 230.23 984.13 234.66"/><polygon class="cls-7" points="947.76 205.16 945.83 199.91 942.49 204.25 947.76 205.16"/><circle class="cls-7" cx="1028.05" cy="184.94" r="3.44"/><circle class="cls-8" cx="894.2" cy="66.08" r="3.44"/><circle class="cls-9" cx="825.76" cy="209.85" r="2.23"/><circle class="cls-11" cx="942.2" cy="167.53" r="3.85"/><line class="cls-1" x1="893.82" y1="239.25" x2="878.56" y2="239.25"/><line class="cls-1" x1="886.19" y1="246.88" x2="886.19" y2="231.62"/><line class="cls-2" x1="973.6" y1="84.14" x2="958.35" y2="84.14"/><line class="cls-2" x1="965.97" y1="91.77" x2="965.97" y2="76.51"/><line class="cls-3" x1="994.25" y1="38.38" x2="979" y2="38.38"/><line class="cls-3" x1="986.63" y1="46" x2="986.63" y2="30.75"/><line class="cls-4" x1="1027.06" y1="54.98" x2="1011.8" y2="54.98"/><line class="cls-4" x1="1019.43" y1="62.61" x2="1019.43" y2="47.35"/><line class="cls-1" x1="820.16" y1="181.22" x2="804.9" y2="181.22"/><line class="cls-1" x1="812.53" y1="188.85" x2="812.53" y2="173.59"/><line class="cls-3" x1="931.08" y1="223.05" x2="915.82" y2="223.05"/><line class="cls-3" x1="923.45" y1="230.68" x2="923.45" y2="215.42"/><line class="cls-5" x1="899.89" y1="195.92" x2="884.64" y2="195.92"/><line class="cls-5" x1="892.26" y1="203.54" x2="892.26" y2="188.29"/><polygon class="cls-6" points="991.82 111.13 994.26 106.1 988.81 106.71 991.82 111.13"/><polygon class="cls-7" points="958.29 44.79 956.36 39.53 953.02 43.88 958.29 44.79"/><circle class="cls-7" cx="1036.36" cy="30.44" r="3.44"/><circle class="cls-7" cx="812.4" cy="234.56" r="3.44"/><circle class="cls-8" cx="859.78" cy="218.76" r="3.44"/><circle class="cls-9" cx="1039.8" cy="100.71" r="2.23"/><circle class="cls-10" cx="915.87" cy="246.5" r="2.02"/><circle class="cls-11" cx="816.45" cy="31.25" r="3.85"/><line class="cls-4" x1="838.74" y1="239.66" x2="823.48" y2="239.66"/><line class="cls-4" x1="831.11" y1="247.28" x2="831.11" y2="232.03"/><line class="cls-3" x1="1035.56" y1="239.66" x2="1020.31" y2="239.66"/><line class="cls-3" x1="1027.94" y1="247.28" x2="1027.94" y2="232.03"/><line class="cls-1" x1="965.91" y1="118.56" x2="950.65" y2="118.56"/><line class="cls-1" x1="958.28" y1="126.19" x2="958.28" y2="110.94"/><circle class="cls-11" cx="984.92" cy="193.65" r="3.85"/><polygon class="cls-6" points="624.7 417.41 619.66 414.97 620.28 420.42 624.7 417.41"/><circle class="cls-8" cx="613.92" cy="304.17" r="3.44"/><circle class="cls-9" cx="610.27" cy="341.43" r="2.23"/><line class="cls-2" x1="656.69" y1="523.82" x2="641.44" y2="523.82"/><line class="cls-2" x1="649.06" y1="531.45" x2="649.06" y2="516.19"/><line class="cls-3" x1="587.44" y1="340.56" x2="572.19" y2="340.56"/><line class="cls-3" x1="579.82" y1="348.19" x2="579.82" y2="332.93"/><line class="cls-4" x1="584.53" y1="457.36" x2="569.27" y2="457.36"/><line class="cls-4" x1="576.9" y1="464.98" x2="576.9" y2="449.73"/><line class="cls-1" x1="569.97" y1="388.03" x2="554.71" y2="388.03"/><line class="cls-1" x1="562.34" y1="395.66" x2="562.34" y2="380.4"/><polygon class="cls-6" points="666.13 509.66 668.56 504.62 663.12 505.23 666.13 509.66"/><polygon class="cls-7" points="639.76 492.16 637.83 486.91 634.49 491.25 639.76 492.16"/><circle class="cls-7" cx="596.05" cy="426.94" r="3.44"/><circle class="cls-11" cx="634.2" cy="452.53" r="3.85"/><line class="cls-2" x1="651.6" y1="331.14" x2="636.35" y2="331.14"/><line class="cls-2" x1="643.97" y1="338.77" x2="643.97" y2="323.51"/><line class="cls-3" x1="562.25" y1="280.38" x2="547" y2="280.38"/><line class="cls-3" x1="554.63" y1="288" x2="554.63" y2="272.75"/><line class="cls-4" x1="595.06" y1="296.98" x2="579.8" y2="296.98"/><line class="cls-4" x1="587.43" y1="304.61" x2="587.43" y2="289.35"/><line class="cls-3" x1="623.08" y1="510.05" x2="607.82" y2="510.05"/><line class="cls-3" x1="615.45" y1="517.68" x2="615.45" y2="502.42"/><polygon class="cls-6" points="559.82 353.13 562.26 348.1 556.81 348.71 559.82 353.13"/><polygon class="cls-7" points="636.29 291.79 634.36 286.53 631.02 290.88 636.29 291.79"/><circle class="cls-7" cx="604.36" cy="272.44" r="3.44"/><circle class="cls-9" cx="607.8" cy="342.71" r="2.23"/><circle class="cls-10" cx="579.87" cy="502.5" r="2.02"/><line class="cls-3" x1="603.56" y1="481.66" x2="588.31" y2="481.66"/><line class="cls-3" x1="595.94" y1="489.28" x2="595.94" y2="474.03"/><line class="cls-1" x1="643.91" y1="365.56" x2="628.65" y2="365.56"/><line class="cls-1" x1="636.28" y1="373.19" x2="636.28" y2="357.94"/><circle class="cls-11" cx="549.92" cy="428.65" r="3.85"/><line class="cls-1" x1="941" y1="278.32" x2="941" y2="293.58"/><line class="cls-1" x1="948.63" y1="285.95" x2="933.37" y2="285.95"/><line class="cls-2" x1="1007.01" y1="382.81" x2="1007.01" y2="398.07"/><line class="cls-2" x1="1014.64" y1="390.44" x2="999.38" y2="390.44"/><line class="cls-3" x1="920.75" y1="370.26" x2="920.75" y2="385.51"/><line class="cls-3" x1="928.38" y1="377.88" x2="913.12" y2="377.88"/><line class="cls-4" x1="985.55" y1="347.17" x2="985.55" y2="362.43"/><line class="cls-4" x1="993.17" y1="354.8" x2="977.92" y2="354.8"/><line class="cls-5" x1="924.8" y1="320.04" x2="924.8" y2="335.29"/><line class="cls-5" x1="932.43" y1="327.66" x2="917.17" y2="327.66"/><polygon class="cls-6" points="1041.7 382.41 1036.66 379.97 1037.28 385.42 1041.7 382.41"/><polygon class="cls-7" points="975.35 415.94 970.1 417.87 974.44 421.21 975.35 415.94"/><circle class="cls-7" cx="955.14" cy="335.65" r="3.44"/><circle class="cls-8" cx="1034.92" cy="297.17" r="3.44"/><circle class="cls-9" cx="1031.27" cy="334.43" r="2.23"/><circle class="cls-10" cx="995.03" cy="271.05" r="2.02"/><circle class="cls-11" cx="937.72" cy="415.83" r="3.85"/><line class="cls-1" x1="962.85" y1="385.29" x2="947.59" y2="385.29"/><line class="cls-1" x1="955.22" y1="392.92" x2="955.22" y2="377.67"/><line class="cls-2" x1="711.69" y1="504.82" x2="696.44" y2="504.82"/><line class="cls-2" x1="704.06" y1="512.45" x2="704.06" y2="497.19"/><line class="cls-3" x1="625.44" y1="79.74" x2="610.19" y2="79.74"/><line class="cls-3" x1="617.82" y1="87.36" x2="617.82" y2="72.11"/><line class="cls-4" x1="762.53" y1="507.36" x2="747.27" y2="507.36"/><line class="cls-4" x1="754.9" y1="514.98" x2="754.9" y2="499.73"/><line class="cls-1" x1="1035.97" y1="512.03" x2="1020.71" y2="512.03"/><line class="cls-1" x1="1028.34" y1="519.66" x2="1028.34" y2="504.4"/><polygon class="cls-6" points="730.13 526.66 732.56 521.62 727.12 522.23 730.13 526.66"/><polygon class="cls-7" points="1046.76 445.16 1044.83 439.91 1041.49 444.25 1046.76 445.16"/><circle class="cls-7" cx="856.05" cy="506.94" r="3.44"/><circle class="cls-8" cx="993.2" cy="306.08" r="3.44"/><circle class="cls-9" cx="924.76" cy="449.85" r="2.23"/><circle class="cls-11" cx="1041.2" cy="407.53" r="3.85"/><line class="cls-1" x1="992.82" y1="479.25" x2="977.56" y2="479.25"/><line class="cls-1" x1="985.19" y1="486.88" x2="985.19" y2="471.62"/><line class="cls-2" x1="1072.6" y1="324.14" x2="1057.35" y2="324.14"/><line class="cls-2" x1="1064.97" y1="331.77" x2="1064.97" y2="316.51"/><line class="cls-3" x1="1057.25" y1="215.38" x2="1042" y2="215.38"/><line class="cls-3" x1="1049.63" y1="223" x2="1049.63" y2="207.75"/><line class="cls-4" x1="1065.06" y1="161.98" x2="1049.8" y2="161.98"/><line class="cls-4" x1="1057.43" y1="169.61" x2="1057.43" y2="154.35"/><line class="cls-1" x1="933.16" y1="433.22" x2="917.9" y2="433.22"/><line class="cls-1" x1="925.53" y1="440.85" x2="925.53" y2="425.59"/><line class="cls-3" x1="1030.08" y1="463.05" x2="1014.82" y2="463.05"/><line class="cls-3" x1="1022.45" y1="470.68" x2="1022.45" y2="455.42"/><line class="cls-5" x1="998.89" y1="435.92" x2="983.64" y2="435.92"/><line class="cls-5" x1="991.26" y1="443.54" x2="991.26" y2="428.29"/><polygon class="cls-6" points="1012.82 87.31 1015.26 82.27 1009.81 82.89 1012.82 87.31"/><polygon class="cls-7" points="1057.29 284.79 1055.36 279.53 1052.02 283.88 1057.29 284.79"/><circle class="cls-7" cx="894.36" cy="306.44" r="3.44"/><circle class="cls-7" cx="911.4" cy="474.56" r="3.44"/><circle class="cls-8" cx="958.78" cy="458.76" r="3.44"/><circle class="cls-9" cx="1060.8" cy="76.88" r="2.23"/><circle class="cls-10" cx="1014.87" cy="486.5" r="2.02"/><circle class="cls-11" cx="915.45" cy="271.25" r="3.85"/><line class="cls-4" x1="937.74" y1="479.66" x2="922.48" y2="479.66"/><line class="cls-4" x1="930.11" y1="487.28" x2="930.11" y2="472.03"/><line class="cls-3" x1="969.56" y1="516.66" x2="954.31" y2="516.66"/><line class="cls-3" x1="961.94" y1="524.28" x2="961.94" y2="509.03"/><line class="cls-1" x1="1064.91" y1="358.56" x2="1049.65" y2="358.56"/><line class="cls-1" x1="1057.28" y1="366.19" x2="1057.28" y2="350.94"/><circle class="cls-11" cx="789.92" cy="502.65" r="3.85"/><line class="cls-1" x1="570" y1="561.32" x2="570" y2="576.58"/><line class="cls-1" x1="577.63" y1="568.95" x2="562.37" y2="568.95"/><line class="cls-2" x1="636.01" y1="665.81" x2="636.01" y2="681.07"/><line class="cls-2" x1="643.64" y1="673.44" x2="628.38" y2="673.44"/><line class="cls-3" x1="549.75" y1="653.26" x2="549.75" y2="668.51"/><line class="cls-3" x1="557.38" y1="660.88" x2="542.12" y2="660.88"/><line class="cls-4" x1="614.55" y1="630.17" x2="614.55" y2="645.43"/><line class="cls-4" x1="622.17" y1="637.8" x2="606.92" y2="637.8"/><line class="cls-5" x1="553.8" y1="603.04" x2="553.8" y2="618.29"/><line class="cls-5" x1="561.43" y1="610.66" x2="546.17" y2="610.66"/><polygon class="cls-6" points="670.7 665.41 665.66 662.97 666.28 668.42 670.7 665.41"/><polygon class="cls-7" points="604.35 698.94 599.1 700.87 603.44 704.21 604.35 698.94"/><circle class="cls-7" cx="584.14" cy="618.65" r="3.44"/><circle class="cls-8" cx="663.92" cy="580.17" r="3.44"/><circle class="cls-9" cx="660.27" cy="617.43" r="2.23"/><circle class="cls-10" cx="624.03" cy="554.05" r="2.02"/><circle class="cls-11" cx="566.72" cy="698.83" r="3.85"/><line class="cls-1" x1="591.85" y1="668.29" x2="576.59" y2="668.29"/><line class="cls-1" x1="584.22" y1="675.92" x2="584.22" y2="660.67"/><line class="cls-2" x1="692.69" y1="759.82" x2="677.44" y2="759.82"/><line class="cls-2" x1="685.06" y1="767.45" x2="685.06" y2="752.19"/><line class="cls-3" x1="721.44" y1="673.56" x2="706.19" y2="673.56"/><line class="cls-3" x1="713.82" y1="681.19" x2="713.82" y2="665.93"/><line class="cls-4" x1="744.53" y1="738.36" x2="729.27" y2="738.36"/><line class="cls-4" x1="736.9" y1="745.98" x2="736.9" y2="730.73"/><line class="cls-1" x1="763.97" y1="663.03" x2="748.71" y2="663.03"/><line class="cls-1" x1="756.34" y1="670.66" x2="756.34" y2="655.4"/><polygon class="cls-6" points="712.13 757.66 714.56 752.62 709.12 753.23 712.13 757.66"/><polygon class="cls-7" points="675.76 728.16 673.83 722.91 670.49 727.25 675.76 728.16"/><circle class="cls-7" cx="756.05" cy="707.94" r="3.44"/><circle class="cls-8" cx="622.2" cy="589.08" r="3.44"/><circle class="cls-9" cx="553.76" cy="732.85" r="2.23"/><circle class="cls-11" cx="670.2" cy="690.53" r="3.85"/><line class="cls-1" x1="621.82" y1="762.25" x2="606.56" y2="762.25"/><line class="cls-1" x1="614.19" y1="769.88" x2="614.19" y2="754.62"/><line class="cls-2" x1="701.6" y1="607.14" x2="686.35" y2="607.14"/><line class="cls-2" x1="693.97" y1="614.77" x2="693.97" y2="599.51"/><line class="cls-3" x1="722.25" y1="561.38" x2="707" y2="561.38"/><line class="cls-3" x1="714.63" y1="569" x2="714.63" y2="553.75"/><line class="cls-4" x1="755.06" y1="577.98" x2="739.8" y2="577.98"/><line class="cls-4" x1="747.43" y1="585.61" x2="747.43" y2="570.35"/><line class="cls-1" x1="562.16" y1="716.22" x2="546.9" y2="716.22"/><line class="cls-1" x1="554.53" y1="723.85" x2="554.53" y2="708.59"/><line class="cls-3" x1="659.08" y1="746.05" x2="643.82" y2="746.05"/><line class="cls-3" x1="651.45" y1="753.68" x2="651.45" y2="738.42"/><line class="cls-5" x1="627.89" y1="718.92" x2="612.64" y2="718.92"/><line class="cls-5" x1="620.26" y1="726.54" x2="620.26" y2="711.29"/><polygon class="cls-6" points="719.82 634.13 722.26 629.1 716.81 629.71 719.82 634.13"/><polygon class="cls-7" points="686.29 567.79 684.36 562.53 681.02 566.88 686.29 567.79"/><circle class="cls-7" cx="764.36" cy="553.44" r="3.44"/><circle class="cls-7" cx="540.4" cy="757.56" r="3.44"/><circle class="cls-8" cx="587.78" cy="741.76" r="3.44"/><circle class="cls-9" cx="767.8" cy="623.71" r="2.23"/><circle class="cls-10" cx="643.87" cy="769.5" r="2.02"/><circle class="cls-11" cx="544.45" cy="554.25" r="3.85"/><line class="cls-4" x1="566.74" y1="762.66" x2="551.48" y2="762.66"/><line class="cls-4" x1="559.11" y1="770.28" x2="559.11" y2="755.03"/><line class="cls-3" x1="763.56" y1="762.66" x2="748.31" y2="762.66"/><line class="cls-3" x1="755.94" y1="770.28" x2="755.94" y2="755.03"/><line class="cls-1" x1="693.91" y1="641.56" x2="678.65" y2="641.56"/><line class="cls-1" x1="686.28" y1="649.19" x2="686.28" y2="633.94"/><circle class="cls-11" cx="712.92" cy="716.65" r="3.85"/><line class="cls-1" x1="665" y1="789.32" x2="665" y2="804.58"/><line class="cls-1" x1="672.63" y1="796.95" x2="657.37" y2="796.95"/><line class="cls-2" x1="731.01" y1="893.81" x2="731.01" y2="909.07"/><line class="cls-2" x1="738.64" y1="901.44" x2="723.38" y2="901.44"/><line class="cls-3" x1="644.75" y1="881.26" x2="644.75" y2="896.51"/><line class="cls-3" x1="652.38" y1="888.88" x2="637.12" y2="888.88"/><line class="cls-4" x1="709.55" y1="858.17" x2="709.55" y2="873.43"/><line class="cls-4" x1="717.17" y1="865.8" x2="701.92" y2="865.8"/><line class="cls-5" x1="648.8" y1="831.04" x2="648.8" y2="846.29"/><line class="cls-5" x1="656.43" y1="838.66" x2="641.17" y2="838.66"/><polygon class="cls-6" points="765.7 893.41 760.66 890.97 761.28 896.42 765.7 893.41"/><polygon class="cls-7" points="699.35 926.94 694.1 928.87 698.44 932.21 699.35 926.94"/><circle class="cls-7" cx="679.14" cy="846.65" r="3.44"/><circle class="cls-8" cx="758.92" cy="808.17" r="3.44"/><circle class="cls-9" cx="746.27" cy="847.43" r="2.23"/><circle class="cls-10" cx="719.03" cy="782.05" r="2.02"/><circle class="cls-11" cx="661.72" cy="926.83" r="3.85"/><line class="cls-1" x1="686.85" y1="896.29" x2="671.59" y2="896.29"/><line class="cls-1" x1="679.22" y1="903.92" x2="679.22" y2="888.67"/><line class="cls-2" x1="787.69" y1="987.82" x2="772.44" y2="987.82"/><line class="cls-2" x1="780.06" y1="995.45" x2="780.06" y2="980.19"/><line class="cls-3" x1="816.44" y1="901.56" x2="801.19" y2="901.56"/><line class="cls-3" x1="808.82" y1="909.19" x2="808.82" y2="893.93"/><line class="cls-4" x1="839.53" y1="966.36" x2="824.27" y2="966.36"/><line class="cls-4" x1="831.9" y1="973.98" x2="831.9" y2="958.73"/><line class="cls-1" x1="858.97" y1="891.03" x2="843.71" y2="891.03"/><line class="cls-1" x1="851.34" y1="898.66" x2="851.34" y2="883.4"/><polygon class="cls-6" points="807.13 985.66 809.56 980.62 804.12 981.23 807.13 985.66"/><polygon class="cls-7" points="770.76 956.16 768.83 950.91 765.49 955.25 770.76 956.16"/><circle class="cls-7" cx="851.05" cy="935.94" r="3.44"/><circle class="cls-8" cx="717.2" cy="817.08" r="3.44"/><circle class="cls-9" cx="648.76" cy="960.85" r="2.23"/><circle class="cls-11" cx="765.2" cy="918.53" r="3.85"/><line class="cls-1" x1="716.82" y1="990.25" x2="701.56" y2="990.25"/><line class="cls-1" x1="709.19" y1="997.88" x2="709.19" y2="982.62"/><line class="cls-2" x1="796.6" y1="835.14" x2="781.35" y2="835.14"/><line class="cls-2" x1="788.97" y1="842.77" x2="788.97" y2="827.51"/><line class="cls-3" x1="817.25" y1="789.38" x2="802" y2="789.38"/><line class="cls-3" x1="809.63" y1="797" x2="809.63" y2="781.75"/><line class="cls-4" x1="846.06" y1="824.98" x2="830.8" y2="824.98"/><line class="cls-4" x1="838.43" y1="832.61" x2="838.43" y2="817.35"/><line class="cls-1" x1="657.16" y1="944.22" x2="641.9" y2="944.22"/><line class="cls-1" x1="649.53" y1="951.85" x2="649.53" y2="936.59"/><line class="cls-3" x1="754.08" y1="974.05" x2="738.82" y2="974.05"/><line class="cls-3" x1="746.45" y1="981.68" x2="746.45" y2="966.42"/><line class="cls-5" x1="722.89" y1="946.92" x2="707.64" y2="946.92"/><line class="cls-5" x1="715.26" y1="954.54" x2="715.26" y2="939.29"/><polygon class="cls-6" points="814.82 862.13 817.26 857.1 811.81 857.71 814.82 862.13"/><polygon class="cls-7" points="781.29 795.79 779.36 790.53 776.02 794.88 781.29 795.79"/><circle class="cls-7" cx="859.36" cy="781.44" r="3.44"/><circle class="cls-7" cx="635.4" cy="985.56" r="3.44"/><circle class="cls-8" cx="682.78" cy="969.76" r="3.44"/><circle class="cls-9" cx="862.8" cy="851.71" r="2.23"/><circle class="cls-10" cx="738.87" cy="997.5" r="2.02"/><circle class="cls-11" cx="639.45" cy="782.25" r="3.85"/><line class="cls-4" x1="661.74" y1="990.66" x2="646.48" y2="990.66"/><line class="cls-4" x1="654.11" y1="998.28" x2="654.11" y2="983.03"/><line class="cls-3" x1="868.56" y1="1011.66" x2="853.31" y2="1011.66"/><line class="cls-3" x1="860.94" y1="1019.28" x2="860.94" y2="1004.03"/><line class="cls-1" x1="788.91" y1="869.56" x2="773.65" y2="869.56"/><line class="cls-1" x1="781.28" y1="877.19" x2="781.28" y2="861.94"/><circle class="cls-11" cx="807.92" cy="944.65" r="3.85"/><line class="cls-1" x1="817" y1="549.32" x2="817" y2="564.58"/><line class="cls-1" x1="824.63" y1="556.95" x2="809.37" y2="556.95"/><line class="cls-2" x1="883.01" y1="653.81" x2="883.01" y2="669.07"/><line class="cls-2" x1="890.64" y1="661.44" x2="875.38" y2="661.44"/><line class="cls-3" x1="796.75" y1="641.26" x2="796.75" y2="656.51"/><line class="cls-3" x1="804.38" y1="648.88" x2="789.12" y2="648.88"/><line class="cls-4" x1="861.55" y1="618.17" x2="861.55" y2="633.43"/><line class="cls-4" x1="869.17" y1="625.8" x2="853.92" y2="625.8"/><line class="cls-5" x1="800.8" y1="591.04" x2="800.8" y2="606.29"/><line class="cls-5" x1="808.43" y1="598.66" x2="793.17" y2="598.66"/><polygon class="cls-6" points="917.7 653.41 912.66 650.97 913.28 656.42 917.7 653.41"/><polygon class="cls-7" points="851.35 686.94 846.1 688.87 850.44 692.21 851.35 686.94"/><circle class="cls-7" cx="831.14" cy="606.65" r="3.44"/><circle class="cls-8" cx="910.92" cy="568.17" r="3.44"/><circle class="cls-9" cx="907.27" cy="605.43" r="2.23"/><circle class="cls-10" cx="871.03" cy="542.05" r="2.02"/><circle class="cls-11" cx="813.72" cy="686.83" r="3.85"/><line class="cls-1" x1="838.85" y1="656.29" x2="823.59" y2="656.29"/><line class="cls-1" x1="831.22" y1="663.92" x2="831.22" y2="648.67"/><line class="cls-2" x1="939.69" y1="747.82" x2="924.44" y2="747.82"/><line class="cls-2" x1="932.06" y1="755.45" x2="932.06" y2="740.19"/><line class="cls-3" x1="968.44" y1="661.56" x2="953.19" y2="661.56"/><line class="cls-3" x1="960.82" y1="669.19" x2="960.82" y2="653.93"/><line class="cls-4" x1="991.53" y1="726.36" x2="976.27" y2="726.36"/><line class="cls-4" x1="983.9" y1="733.98" x2="983.9" y2="718.73"/><line class="cls-1" x1="1010.97" y1="651.03" x2="995.71" y2="651.03"/><line class="cls-1" x1="1003.34" y1="658.66" x2="1003.34" y2="643.4"/><polygon class="cls-6" points="959.13 745.66 961.56 740.62 956.12 741.23 959.13 745.66"/><polygon class="cls-7" points="922.76 716.16 920.83 710.91 917.49 715.25 922.76 716.16"/><circle class="cls-7" cx="1003.05" cy="695.94" r="3.44"/><circle class="cls-8" cx="869.2" cy="577.08" r="3.44"/><circle class="cls-9" cx="800.76" cy="720.85" r="2.23"/><circle class="cls-11" cx="917.2" cy="678.53" r="3.85"/><line class="cls-1" x1="868.82" y1="750.25" x2="853.56" y2="750.25"/><line class="cls-1" x1="861.19" y1="757.88" x2="861.19" y2="742.62"/><line class="cls-2" x1="948.6" y1="595.14" x2="933.35" y2="595.14"/><line class="cls-2" x1="940.97" y1="602.77" x2="940.97" y2="587.51"/><line class="cls-3" x1="969.25" y1="549.38" x2="954" y2="549.38"/><line class="cls-3" x1="961.63" y1="557" x2="961.63" y2="541.75"/><line class="cls-4" x1="1002.06" y1="565.98" x2="986.8" y2="565.98"/><line class="cls-4" x1="994.43" y1="573.61" x2="994.43" y2="558.35"/><line class="cls-1" x1="795.16" y1="692.22" x2="779.9" y2="692.22"/><line class="cls-1" x1="787.53" y1="699.85" x2="787.53" y2="684.59"/><line class="cls-3" x1="906.08" y1="734.05" x2="890.82" y2="734.05"/><line class="cls-3" x1="898.45" y1="741.68" x2="898.45" y2="726.42"/><line class="cls-5" x1="874.89" y1="706.92" x2="859.64" y2="706.92"/><line class="cls-5" x1="867.26" y1="714.54" x2="867.26" y2="699.29"/><polygon class="cls-6" points="966.82 622.13 969.26 617.1 963.81 617.71 966.82 622.13"/><polygon class="cls-7" points="933.29 555.79 931.36 550.53 928.02 554.88 933.29 555.79"/><circle class="cls-7" cx="1011.36" cy="541.44" r="3.44"/><circle class="cls-7" cx="787.4" cy="745.56" r="3.44"/><circle class="cls-8" cx="834.78" cy="729.76" r="3.44"/><circle class="cls-9" cx="1014.8" cy="611.71" r="2.23"/><circle class="cls-10" cx="890.87" cy="757.5" r="2.02"/><circle class="cls-11" cx="791.45" cy="542.25" r="3.85"/><line class="cls-4" x1="813.74" y1="750.66" x2="798.48" y2="750.66"/><line class="cls-4" x1="806.11" y1="758.28" x2="806.11" y2="743.03"/><line class="cls-3" x1="1010.56" y1="750.66" x2="995.31" y2="750.66"/><line class="cls-3" x1="1002.94" y1="758.28" x2="1002.94" y2="743.03"/><line class="cls-1" x1="940.91" y1="629.56" x2="925.65" y2="629.56"/><line class="cls-1" x1="933.28" y1="637.19" x2="933.28" y2="621.94"/><circle class="cls-11" cx="959.92" cy="704.65" r="3.85"/><polygon class="cls-6" points="599.7 928.41 594.66 925.97 595.28 931.42 599.7 928.41"/><circle class="cls-8" cx="588.92" cy="815.17" r="3.44"/><circle class="cls-9" cx="585.27" cy="852.43" r="2.23"/><line class="cls-2" x1="631.69" y1="1034.82" x2="616.44" y2="1034.82"/><line class="cls-2" x1="624.06" y1="1042.45" x2="624.06" y2="1027.19"/><line class="cls-3" x1="562.44" y1="851.56" x2="547.19" y2="851.56"/><line class="cls-3" x1="554.82" y1="859.19" x2="554.82" y2="843.93"/><line class="cls-4" x1="559.53" y1="968.36" x2="544.27" y2="968.36"/><line class="cls-4" x1="551.9" y1="975.98" x2="551.9" y2="960.73"/><line class="cls-1" x1="578.97" y1="893.03" x2="563.71" y2="893.03"/><line class="cls-1" x1="571.34" y1="900.66" x2="571.34" y2="885.4"/><polygon class="cls-6" points="641.13 1020.66 643.56 1015.62 638.12 1016.23 641.13 1020.66"/><polygon class="cls-7" points="614.76 1003.16 612.83 997.91 609.49 1002.25 614.76 1003.16"/><circle class="cls-7" cx="571.05" cy="937.94" r="3.44"/><circle class="cls-11" cx="609.2" cy="963.53" r="3.85"/><line class="cls-2" x1="626.6" y1="842.14" x2="611.35" y2="842.14"/><line class="cls-2" x1="618.97" y1="849.77" x2="618.97" y2="834.51"/><line class="cls-3" x1="537.25" y1="791.38" x2="522" y2="791.38"/><line class="cls-3" x1="529.63" y1="799" x2="529.63" y2="783.75"/><line class="cls-4" x1="570.06" y1="807.98" x2="554.8" y2="807.98"/><line class="cls-4" x1="562.43" y1="815.61" x2="562.43" y2="800.35"/><line class="cls-3" x1="598.08" y1="1021.05" x2="582.82" y2="1021.05"/><line class="cls-3" x1="590.45" y1="1028.68" x2="590.45" y2="1013.42"/><polygon class="cls-6" points="534.82 864.13 537.26 859.1 531.81 859.71 534.82 864.13"/><polygon class="cls-7" points="611.29 802.79 609.36 797.53 606.02 801.88 611.29 802.79"/><circle class="cls-7" cx="579.36" cy="783.44" r="3.44"/><circle class="cls-9" cx="582.8" cy="853.71" r="2.23"/><circle class="cls-10" cx="554.87" cy="1013.5" r="2.02"/><line class="cls-3" x1="578.56" y1="992.66" x2="563.31" y2="992.66"/><line class="cls-3" x1="570.94" y1="1000.28" x2="570.94" y2="985.03"/><line class="cls-1" x1="618.91" y1="876.56" x2="603.65" y2="876.56"/><line class="cls-1" x1="611.28" y1="884.19" x2="611.28" y2="868.94"/><circle class="cls-11" cx="536.92" cy="920.65" r="3.85"/><line class="cls-1" x1="916" y1="789.32" x2="916" y2="804.58"/><line class="cls-1" x1="923.63" y1="796.95" x2="908.37" y2="796.95"/><line class="cls-2" x1="982.01" y1="893.81" x2="982.01" y2="909.07"/><line class="cls-2" x1="989.64" y1="901.44" x2="974.38" y2="901.44"/><line class="cls-3" x1="895.75" y1="881.26" x2="895.75" y2="896.51"/><line class="cls-3" x1="903.38" y1="888.88" x2="888.12" y2="888.88"/><line class="cls-4" x1="960.55" y1="858.17" x2="960.55" y2="873.43"/><line class="cls-4" x1="968.17" y1="865.8" x2="952.92" y2="865.8"/><line class="cls-5" x1="899.8" y1="831.04" x2="899.8" y2="846.29"/><line class="cls-5" x1="907.43" y1="838.66" x2="892.17" y2="838.66"/><polygon class="cls-6" points="1016.7 893.41 1011.66 890.97 1012.28 896.42 1016.7 893.41"/><polygon class="cls-7" points="950.35 926.94 945.1 928.87 949.44 932.21 950.35 926.94"/><circle class="cls-7" cx="930.14" cy="846.65" r="3.44"/><circle class="cls-8" cx="1009.92" cy="808.17" r="3.44"/><circle class="cls-9" cx="1006.27" cy="845.43" r="2.23"/><circle class="cls-10" cx="970.03" cy="782.05" r="2.02"/><circle class="cls-11" cx="912.72" cy="926.83" r="3.85"/><line class="cls-1" x1="937.85" y1="896.29" x2="922.59" y2="896.29"/><line class="cls-1" x1="930.22" y1="903.92" x2="930.22" y2="888.67"/><line class="cls-2" x1="686.69" y1="1015.82" x2="671.44" y2="1015.82"/><line class="cls-2" x1="679.06" y1="1023.45" x2="679.06" y2="1008.19"/><line class="cls-3" x1="600.44" y1="590.74" x2="585.19" y2="590.74"/><line class="cls-3" x1="592.82" y1="598.36" x2="592.82" y2="583.11"/><line class="cls-4" x1="737.53" y1="1018.36" x2="722.27" y2="1018.36"/><line class="cls-4" x1="729.9" y1="1025.98" x2="729.9" y2="1010.73"/><line class="cls-1" x1="1010.97" y1="1023.03" x2="995.71" y2="1023.03"/><line class="cls-1" x1="1003.34" y1="1030.66" x2="1003.34" y2="1015.4"/><polygon class="cls-6" points="705.13 1037.66 707.56 1032.62 702.12 1033.23 705.13 1037.66"/><polygon class="cls-7" points="1021.76 956.16 1019.83 950.91 1016.49 955.25 1021.76 956.16"/><circle class="cls-7" cx="831.05" cy="1017.94" r="3.44"/><circle class="cls-8" cx="968.2" cy="817.08" r="3.44"/><circle class="cls-9" cx="899.76" cy="960.85" r="2.23"/><circle class="cls-11" cx="1016.2" cy="918.53" r="3.85"/><line class="cls-1" x1="967.82" y1="990.25" x2="952.56" y2="990.25"/><line class="cls-1" x1="960.19" y1="997.88" x2="960.19" y2="982.62"/><line class="cls-2" x1="1047.6" y1="835.14" x2="1032.35" y2="835.14"/><line class="cls-2" x1="1039.97" y1="842.77" x2="1039.97" y2="827.51"/><line class="cls-3" x1="1032.25" y1="726.38" x2="1017" y2="726.38"/><line class="cls-3" x1="1024.63" y1="734" x2="1024.63" y2="718.75"/><line class="cls-4" x1="1040.06" y1="672.98" x2="1024.8" y2="672.98"/><line class="cls-4" x1="1032.43" y1="680.61" x2="1032.43" y2="665.35"/><line class="cls-1" x1="908.16" y1="944.22" x2="892.9" y2="944.22"/><line class="cls-1" x1="900.53" y1="951.85" x2="900.53" y2="936.59"/><line class="cls-3" x1="1005.08" y1="974.05" x2="989.82" y2="974.05"/><line class="cls-3" x1="997.45" y1="981.68" x2="997.45" y2="966.42"/><line class="cls-5" x1="973.89" y1="946.92" x2="958.64" y2="946.92"/><line class="cls-5" x1="966.26" y1="954.54" x2="966.26" y2="939.29"/><polygon class="cls-6" points="987.82 598.31 990.26 593.27 984.81 593.89 987.82 598.31"/><polygon class="cls-7" points="1032.29 795.79 1030.36 790.53 1027.02 794.88 1032.29 795.79"/><circle class="cls-7" cx="869.36" cy="817.44" r="3.44"/><circle class="cls-7" cx="886.4" cy="985.56" r="3.44"/><circle class="cls-8" cx="933.78" cy="969.76" r="3.44"/><circle class="cls-9" cx="1035.8" cy="587.88" r="2.23"/><circle class="cls-10" cx="989.87" cy="997.5" r="2.02"/><circle class="cls-11" cx="890.45" cy="782.25" r="3.85"/><line class="cls-4" x1="912.74" y1="990.66" x2="897.48" y2="990.66"/><line class="cls-4" x1="905.11" y1="998.28" x2="905.11" y2="983.03"/><line class="cls-3" x1="944.56" y1="1027.66" x2="929.31" y2="1027.66"/><line class="cls-3" x1="936.94" y1="1035.28" x2="936.94" y2="1020.03"/><line class="cls-1" x1="1039.91" y1="869.56" x2="1024.65" y2="869.56"/><line class="cls-1" x1="1032.28" y1="877.19" x2="1032.28" y2="861.94"/><circle class="cls-11" cx="764.92" cy="1013.65" r="3.85"/></g></g></svg>