<svg xmlns="http://www.w3.org/2000/svg" viewBox="0 0 808.89 808.89"><defs><style>.cls-1{fill:#ff5252;}.cls-2,.cls-3{fill:#ffe150;}.cls-3{stroke:#000;stroke-linecap:round;stroke-miterlimit:10;stroke-width:17px;}</style></defs><title>Asset 1</title><g id="Layer_2" data-name="Layer 2"><g id="Layer_2-2" data-name="Layer 2"><path class="cls-1" d="M72.05,542.36c3.3-12.64,24-63.5,105.11-196.89,28-46,28.5-102,111-184.49s108,0,108,0c13.1-7.88,24.9-11.46,54.24-4.79s51.67,31.67,99.33,95.33c45.77,61.13,142.67,216,142.67,216,29-27.33,50.93-42.16,59.6-34.16,16.35,15.09-1.6,52.83-1.6,52.83s25.93-30.58,40.65-22.77c6,3.18,9.4,8.42,11.07,15.12a406.7,406.7,0,0,0,6.78-74.1C808.89,181.08,627.81,0,404.45,0S0,181.08,0,404.45a402.56,402.56,0,0,0,69.53,226.8C63.25,601.57,64.4,571.71,72.05,542.36Z"/></g><g id="Layer_3" data-name="Layer 3"><path class="cls-2" d="M505.46,367.92H391.9L363.92,530H469.25c42.79,0,94.64-18.93,94.64-107C563.89,386.85,547.44,367.92,505.46,367.92Z"/><path class="cls-2" d="M529.33,256.82q13,0,24.95.87-2.35-3.22-4.55-6.16c-47.67-63.67-70-88.67-99.33-95.33s-41.14-3.08-54.24,4.79c0,0-25.5-82.5-108,0-41.9,41.9-62.65,77-76.6,107.35-12.46-9.88-31-22.16-52.75-29-40.45-12.74-62.93-11.24-62.93,13.48s41.2,40.45,49.44,42.7S188,309.74,188,309.74s-53.87,1.32-72.48,5.43c-6.31,1.39-21.16,2.25-25.66,26.41-1.51,8.1,3,30.42,24.16,34.09,11.65,2,26.57,4.23,41.65,5.55C92.29,488.16,75,530.92,72.05,542.36c-7.66,29.35-8.8,59.21-2.53,88.88A406.56,406.56,0,0,0,197.12,751.77l87-494.95Z"/><path class="cls-2" d="M429.75,641.14H344.17L319.56,781a62.73,62.73,0,0,1-5.93,17.69,407.4,407.4,0,0,0,174.86,1.48,62.87,62.87,0,0,1-3.86-8.53Z"/><path class="cls-2" d="M802.11,478.54c-1.67-6.7-5.08-11.94-11.07-15.12-14.72-7.81-40.65,22.77-40.65,22.77s17.95-37.74,1.6-52.83c-8.67-8-30.6,6.83-59.6,34.16l-.72-1.14C675,546.76,626.41,599.67,557.31,624.68l45.47,123.71a64.5,64.5,0,0,1,2.21,7.33C706.29,697.76,780.13,597.25,802.11,478.54Z"/><path class="cls-1" d="M698,400.84c0-83.17-42.46-135.91-143.76-143.15,44.89,61.4,128.85,195.07,137.4,208.7A322.32,322.32,0,0,0,698,400.84Z"/><path class="cls-1" d="M557.31,624.68c69.1-25,117.68-77.92,134.36-158.3-8.54-13.63-92.51-147.29-137.4-208.7q-11.93-.85-24.95-.87H284.09l-87,494.95a401.93,401.93,0,0,0,116.51,46.87A62.73,62.73,0,0,0,319.56,781l24.6-139.81h85.59L484.64,791.6a62.87,62.87,0,0,0,3.86,8.53A401.74,401.74,0,0,0,605,755.72a64.5,64.5,0,0,0-2.21-7.33ZM469.25,530H363.92l28-162.12H505.46c42,0,58.43,18.93,58.43,55.14C563.89,511.12,512,530,469.25,530Z"/><line class="cls-3" x1="636.11" y1="167.94" x2="588.93" y2="215.11"/><line class="cls-3" x1="580.34" y1="124.32" x2="562" y2="188.47"/><line class="cls-3" x1="525.66" y1="99.21" x2="523.64" y2="165.89"/></g></g></svg>