<svg xmlns="http://www.w3.org/2000/svg" viewBox="0 0 808.89 808.89"><defs><style>.cls-1,.cls-4{fill:#ff5252;}.cls-2{fill:#ffe150;}.cls-3{fill:#191919;}.cls-4{stroke:#000;stroke-miterlimit:10;stroke-width:7px;}</style></defs><title>Asset 1</title><g id="Layer_2" data-name="Layer 2"><g id="Layer_2-2" data-name="Layer 2"><path class="cls-1" d="M72.05,542.36c3.3-12.64,24-63.5,105.11-196.89,28-46,28.5-102,111-184.49s108,0,108,0c13.1-7.88,24.9-11.46,54.24-4.79s51.67,31.67,99.33,95.33c45.77,61.13,142.67,216,142.67,216,29-27.33,50.93-42.16,59.6-34.16,16.35,15.09-1.6,52.83-1.6,52.83s25.93-30.58,40.65-22.77c6,3.18,9.4,8.42,11.07,15.12a406.7,406.7,0,0,0,6.78-74.1C808.89,181.08,627.81,0,404.45,0S0,181.08,0,404.45a402.56,402.56,0,0,0,69.53,226.8C63.25,601.57,64.4,571.71,72.05,542.36Z"/><path class="cls-2" d="M404.45,808.89c198.06,0,362.86-142.37,397.67-330.35-1.67-6.7-5.08-11.94-11.07-15.12-14.72-7.81-40.65,22.77-40.65,22.77s17.95-37.74,1.6-52.83c-8.67-8-30.6,6.83-59.6,34.16,0,0-96.9-154.87-142.67-216-47.67-63.67-70-88.67-99.33-95.33s-41.14-3.08-54.24,4.79c0,0-25.5-82.5-108,0s-83,138.5-111,184.49C96.05,478.86,75.35,529.73,72.05,542.36c-7.66,29.35-8.8,59.21-2.53,88.88C142.27,738.45,265.13,808.89,404.45,808.89Z"/></g><g id="Layer_3" data-name="Layer 3"><rect class="cls-3" x="255.56" y="250.1" width="24.65" height="52.74" rx="8.12" ry="8.12"/><rect class="cls-3" x="415.29" y="250.1" width="24.65" height="52.74" rx="8.12" ry="8.12"/><path class="cls-1" d="M398.86,312.77s-22.36-24.08-53.32-33.82-48.16-8.6-48.16,10.32,31.53,31,37.84,32.68,32.68,10.89,32.68,10.89-41.23,1-55.47,4.16c-4.83,1.07-16.2,1.72-19.64,20.21-1.15,6.2,2.31,23.28,18.49,26.09,23.42,4.06,64.07,9.17,79,0s23.51-20.64,26.37-36.69S406.88,320.31,398.86,312.77Z"/><rect class="cls-1" x="239.62" y="466.61" width="306.56" height="58.23" rx="24.5" ry="24.5"/><rect class="cls-1" x="239.62" y="547.41" width="306.56" height="58.23" rx="24.5" ry="24.5"/><rect class="cls-1" x="239.62" y="628.21" width="306.56" height="58.23" rx="24.5" ry="24.5"/><path class="cls-4" d="M661.44,134.45"/><path class="cls-4" d="M202.94,134.45"/></g></g></svg>