<svg xmlns="http://www.w3.org/2000/svg" viewBox="0 0 733.96 684.57"><defs><style>.cls-1{fill:#ffe150;}.cls-2,.cls-4{fill:#ff5252;}.cls-2{stroke:#000;stroke-miterlimit:10;stroke-width:7px;}.cls-3{fill:#191919;}</style></defs><title>Asset 3</title><g id="Layer_2" data-name="Layer 2"><g id="Layer_2-2" data-name="Layer 2"><path class="cls-1" d="M396.85,684.57C201,684.57,37.7,545.39.41,360.55a19.71,19.71,0,0,1,8.76-20.83q.53-.32,1.09-.62c14.72-7.81,40.65,22.77,40.65,22.77S33,324.14,49.31,309c8.67-8,30.6,6.83,59.6,34.16,0,0,96.9-154.87,142.67-216,47.67-63.67,70-88.67,99.33-95.33s41.14-3.08,54.24,4.79c0,0,25.5-82.5,108,0s83,138.5,111,184.49C705.24,354.54,725.94,405.41,729.24,418l.23.88A144.71,144.71,0,0,1,696.25,552,403.39,403.39,0,0,1,396.85,684.57Z"/></g><g id="Layer_3" data-name="Layer 3"><path class="cls-2" d="M142.14,72.29"/><rect class="cls-3" x="361.35" y="111.03" width="24.65" height="75.14" rx="8.12" ry="8.12" transform="translate(214.52 -220.71) rotate(45)"/><rect class="cls-3" x="361.35" y="111.03" width="24.65" height="75.14" rx="8.12" ry="8.12" transform="translate(742.97 -10.56) rotate(135)"/><rect class="cls-3" x="526.82" y="111.03" width="24.65" height="75.14" rx="8.12" ry="8.12" transform="translate(262.98 -337.71) rotate(45)"/><rect class="cls-3" x="526.82" y="111.03" width="24.65" height="75.14" rx="8.12" ry="8.12" transform="translate(1025.45 -127.57) rotate(135)"/><path class="cls-4" d="M410.43,188.45s22.36-24.08,53.32-33.82,48.16-8.6,48.16,10.32-31.53,31-37.84,32.68-32.68,10.89-32.68,10.89,41.23,1,55.47,4.16c4.83,1.07,16.2,1.72,19.64,20.21,1.15,6.2-2.31,23.28-18.49,26.09-23.42,4.06-64.07,9.17-79,0s-23.51-20.64-26.37-36.69S402.41,196,410.43,188.45Z"/><polygon class="cls-4" points="241.83 433.51 350.62 324.72 350.62 379.73 644.41 379.73 644.41 487.3 350.62 487.3 350.62 542.3 241.83 433.51"/></g></g></svg>