<svg xmlns="http://www.w3.org/2000/svg" viewBox="0 0 808.89 808.89"><defs><style>.cls-1,.cls-4{fill:#ff5252;}.cls-2{fill:#ffe150;}.cls-3{fill:#191919;}.cls-4{stroke:#000;stroke-miterlimit:10;stroke-width:7px;}</style></defs><title>Asset 3</title><g id="Layer_2" data-name="Layer 2"><g id="Layer_2-2" data-name="Layer 2"><path class="cls-1" d="M736.84,542.36c-3.3-12.64-24-63.5-105.11-196.89-28-46-28.5-102-111-184.49s-108,0-108,0c-13.1-7.88-24.9-11.46-54.24-4.79s-51.67,31.67-99.33,95.33c-45.77,61.13-142.67,216-142.67,216-29-27.33-50.93-42.16-59.6-34.16-16.35,15.09,1.6,52.83,1.6,52.83s-25.93-30.58-40.65-22.77c-6,3.18-9.4,8.42-11.07,15.12A406.7,406.7,0,0,1,0,404.45C0,181.08,181.08,0,404.45,0S808.89,181.08,808.89,404.45a402.56,402.56,0,0,1-69.53,226.8C745.64,601.57,744.49,571.71,736.84,542.36Z"/><path class="cls-2" d="M404.45,808.89c-198.06,0-362.86-142.37-397.67-330.35,1.67-6.7,5.08-11.94,11.07-15.12C32.57,455.61,58.5,486.2,58.5,486.2s-17.95-37.74-1.6-52.83c8.67-8,30.6,6.83,59.6,34.16,0,0,96.9-154.87,142.67-216,47.67-63.67,70-88.67,99.33-95.33s41.14-3.08,54.24,4.79c0,0,25.5-82.5,108,0s83,138.5,111,184.49c81.11,133.39,101.81,184.25,105.11,196.89,7.66,29.35,8.8,59.21,2.53,88.88C666.62,738.45,543.76,808.89,404.45,808.89Z"/></g><g id="Layer_3" data-name="Layer 3"><rect class="cls-3" x="528.68" y="250.1" width="24.65" height="52.74" rx="8.12" ry="8.12" transform="translate(1082.02 552.95) rotate(-180)"/><rect class="cls-3" x="368.94" y="250.1" width="24.65" height="52.74" rx="8.12" ry="8.12" transform="translate(762.54 552.95) rotate(-180)"/><path class="cls-1" d="M410,312.77s22.36-24.08,53.32-33.82,48.16-8.6,48.16,10.32-31.53,31-37.84,32.68S441,332.83,441,332.83s41.23,1,55.47,4.16c4.83,1.07,16.2,1.72,19.64,20.21,1.15,6.2-2.31,23.28-18.49,26.09-23.42,4.06-64.07,9.17-79,0s-23.51-20.64-26.37-36.69S402,320.31,410,312.77Z"/><path class="cls-4" d="M147.45,134.45"/><path class="cls-4" d="M606,134.45"/><path class="cls-1" d="M610.44,573.87,483.51,430.52a11,11,0,0,0-19.24,7.29v83.64H327.7c-39.91,0-72.26,12.51-72.26,52.42h0c0,39.91,32.35,60.25,72.26,60.25H464.27v81.45a11,11,0,0,0,19.38,7.14Z"/></g></g></svg>